{
.appVersion = "3108";
.formatVersion = 3;
axes = (
{
name = Weight;
tag = wght;
},
{
name = Width;
tag = wdth;
}
);
customParameters = (
{
name = "Enforce Compatibility Check";
value = 1;
},
{
name = "Variable Font Origin";
value = m002;
},
{
name = "MakeOTF Compatibility Mode";
value = 1;
}
);
date = "2022-01-20 02:12:52 +0000";
familyName = "QLD Handwriting";
fontMaster = (
{
axesValues = (
400,
90
);
guides = (
{
pos = (285,121);
},
{
pos = (342,334);
},
{
pos = (647,650);
},
{
pos = (726,16);
},
{
angle = 79.746;
pos = (150,394);
}
);
iconName = SemiLight;
id = m002;
metricValues = (
{
over = 16;
pos = 700;
},
{
over = 16;
pos = 650;
},
{
over = 16;
pos = 350;
},
{
over = -16;
},
{
over = -16;
pos = -300;
},
{
over = -16;
}
);
name = Regular;
stemValues = (
13,
13
);
userData = {
GSExtrudeAngle = 30;
GSExtrudeOffset = 15;
};
visible = 1;
},
{
axesValues = (
600,
100
);
guides = (
{
pos = (285,121);
},
{
pos = (342,334);
},
{
angle = 180;
pos = (646,673);
},
{
pos = (726,16);
},
{
angle = 79.6872;
pos = (107,363);
}
);
iconName = SemiBold;
id = m003;
metricValues = (
{
over = 16;
pos = 700;
},
{
over = 16;
pos = 650;
},
{
over = 16;
pos = 350;
},
{
over = -16;
},
{
over = -16;
pos = -300;
},
{
over = -16;
}
);
name = Bold;
stemValues = (
50,
50
);
userData = {
GSCornerRadius = 15;
GSExtrudeAngle = 30;
GSExtrudeOffset = 15;
};
visible = 1;
}
);
glyphs = (
{
glyphname = A;
kernLeft = "0";
kernRight = "0";
lastChange = "2022-01-29 05:05:58 +0000";
layers = (
{
background = {
backgroundImage = {
imagePath = "../../../../Volumes/Lexar/Mum Font/Handwriting Mum Fonts.png";
locked = 1;
pos = (-2519,-15909);
scale = (2.95,2.95);
};
};
layerId = m002;
shapes = (
{
closed = 1;
nodes = (
(-26,0,o),
(-24,1,o),
(-23,3,cs),
(140,327,l),
(313,327,l),
(337,5,ls),
(337,2,o),
(341,0,o),
(344,0,cs),
(348,0,o),
(350,2,o),
(350,6,cs),
(302,644,l),
(301,648,o),
(298,650,o),
(295,650,cs),
(290,650,o),
(287,648,o),
(286,645,cs),
(-35,9,ls),
(-37,5,o),
(-35,0,o),
(-29,0,cs)
);
},
{
closed = 1;
nodes = (
(290,625,l),
(312,340,l),
(147,340,l)
);
}
);
width = 425;
},
{
background = {
backgroundImage = {
imagePath = "../../../../Volumes/Lexar/Mum Font/Handwriting Mum Fonts.png";
locked = 1;
pos = (-2476,-15909);
scale = (2.95,2.95);
};
};
layerId = m003;
shapes = (
{
closed = 1;
nodes = (
(36,0,o),
(46,7,o),
(50,15,cs),
(177,310,l),
(324,310,l),
(383,18,l),
(386,7,o),
(395,0,o),
(406,0,cs),
(421,0,o),
(435,13,o),
(433,27,cs),
(313,629,l),
(312,641,o),
(299,650,o),
(287,650,cs),
(275,650,o),
(265,644,o),
(261,634,cs),
(2,32,ls),
(-4,19,o),
(8,0,o),
(26,0,cs)
);
},
{
closed = 1;
nodes = (
(278,549,l),
(315,357,l),
(197,357,l)
);
}
);
width = 433;
}
);
unicode = 65;
},
{
glyphname = B;
lastChange = "2022-01-28 13:24:31 +0000";
layers = (
{
layerId = m002;
shapes = (
{
closed = 1;
nodes = (
(258,0,ls),
(342,0,o),
(417,14,o),
(459,54,cs),
(491,85,o),
(506,117,o),
(510,142,cs),
(513,161,o),
(513,179,o),
(511,196,cs),
(507,229,o),
(485,271,o),
(453,298,cs),
(429,318,o),
(384,325,o),
(343,331,c),
(366,332,o),
(383,334,o),
(393,336,cs),
(423,344,o),
(461,365,o),
(482,386,cs),
(508,413,o),
(537,457,o),
(531,500,cs),
(524,559,o),
(489,588,o),
(457,606,cs),
(422,628,o),
(376,640,o),
(343,644,cs),
(311,648,o),
(274,650,o),
(253,650,cs),
(229,650,o),
(194,646,o),
(188,645,cs),
(184,644,o),
(183,642,o),
(183,639,cs),
(183,635,o),
(185,631,o),
(189,632,cs),
(203,634,l),
(90,8,ls),
(89,3,o),
(91,0,o),
(96,0,cs)
);
},
{
closed = 1;
nodes = (
(161,328,l),
(272,328,o),
(323,321,o),
(348,317,cs),
(382,312,o),
(423,306,o),
(445,288,cs),
(475,263,o),
(496,224,o),
(499,194,cs),
(501,173,o),
(501,165,o),
(498,144,cs),
(495,121,o),
(479,93,o),
(449,64,cs),
(412,27,o),
(342,13,o),
(258,13,cs),
(104,13,l)
);
},
{
closed = 1;
nodes = (
(217,636,l),
(229,637,o),
(242,637,o),
(253,637,cs),
(274,637,o),
(311,636,o),
(341,632,cs),
(374,628,o),
(416,616,o),
(451,594,cs),
(481,576,o),
(512,551,o),
(519,498,cs),
(523,461,o),
(498,421,o),
(472,395,cs),
(453,375,o),
(418,356,o),
(389,348,cs),
(364,343,o),
(257,342,o),
(163,341,c)
);
}
);
width = 610;
},
{
layerId = m003;
shapes = (
{
closed = 1;
nodes = (
(180,0,ls),
(262,0,o),
(340,13,o),
(384,55,cs),
(417,87,o),
(436,122,o),
(440,149,cs),
(443,168,o),
(443,188,o),
(441,205,cs),
(437,245,o),
(416,290,o),
(376,317,cs),
(364,325,o),
(358,328,o),
(346,332,c),
(369,343,o),
(391,357,o),
(406,372,cs),
(417,384,o),
(429,399,o),
(439,417,cs),
(451,440,o),
(459,466,o),
(456,493,cs),
(448,556,o),
(409,588,o),
(377,606,cs),
(342,628,o),
(295,641,o),
(262,645,cs),
(232,649,o),
(195,650,o),
(175,650,cs),
(155,650,o),
(114,647,o),
(103,645,cs),
(88,642,o),
(79,632,o),
(79,620,cs),
(79,606,o),
(84,595,o),
(93,595,cs),
(103,595,l),
(1,28,ls),
(-2,12,o),
(8,0,o),
(24,0,cs)
);
},
{
closed = 1;
nodes = (
(103,310,l),
(196,310,o),
(240,304,o),
(262,300,cs),
(295,295,o),
(328,288,o),
(346,276,cs),
(379,255,o),
(388,229,o),
(391,199,cs),
(393,180,o),
(393,175,o),
(390,156,cs),
(387,137,o),
(375,116,o),
(348,90,cs),
(317,59,o),
(257,50,o),
(180,50,cs),
(56,50,l)
);
},
{
closed = 1;
nodes = (
(155,600,l),
(163,600,o),
(169,600,o),
(177,600,cs),
(197,600,o),
(231,598,o),
(256,595,cs),
(286,591,o),
(320,584,o),
(351,564,cs),
(379,547,o),
(400,530,o),
(406,487,cs),
(408,470,o),
(401,451,o),
(391,435,cs),
(384,423,o),
(377,417,o),
(356,396,cs),
(311,352,o),
(176,360,o),
(112,360,c)
);
}
);
width = 457;
}
);
metricLeft = N;
metricRight = O;
unicode = 66;
},
{
glyphname = C;
lastChange = "2022-01-28 13:25:11 +0000";
layers = (
{
layerId = m002;
shapes = (
{
closed = 1;
nodes = (
(203,0,o),
(234,15,o),
(256,30,cs),
(306,64,o),
(340,111,o),
(351,133,cs),
(354,139,o),
(350,142,o),
(345,142,cs),
(342,142,o),
(341,141,o),
(339,138,cs),
(329,119,o),
(295,74,o),
(247,40,cs),
(227,27,o),
(201,13,o),
(177,13,cs),
(156,13,o),
(134,23,o),
(121,37,cs),
(101,59,o),
(90,105,o),
(90,143,cs),
(90,207,o),
(112,309,o),
(120,337,cs),
(126,358,ls),
(138,400,o),
(154,452,o),
(177,488,cs),
(206,535,o),
(261,588,o),
(302,608,cs),
(342,628,o),
(416,641,o),
(465,635,cs),
(470,635,o),
(472,639,o),
(472,642,cs),
(472,645,o),
(470,649,o),
(467,649,cs),
(414,653,o),
(338,640,o),
(296,620,cs),
(253,598,o),
(196,543,o),
(165,494,cs),
(142,458,o),
(127,403,o),
(114,361,cs),
(108,341,ls),
(99,312,o),
(75,208,o),
(77,143,cs),
(78,102,o),
(90,52,o),
(113,27,cs),
(128,11,o),
(154,0,o),
(177,0,cs)
);
}
);
width = 437;
},
{
layerId = m003;
shapes = (
{
closed = 1;
nodes = (
(142,0,o),
(177,17,o),
(199,32,cs),
(249,66,o),
(283,114,o),
(294,136,cs),
(303,154,o),
(290,170,o),
(272,170,cs),
(262,170,o),
(254,166,o),
(249,159,cs),
(241,142,o),
(212,103,o),
(169,72,cs),
(151,60,o),
(132,50,o),
(114,50,cs),
(98,50,o),
(84,58,o),
(75,69,cs),
(59,86,o),
(50,120,o),
(50,154,cs),
(50,212,o),
(73,307,o),
(80,333,cs),
(85,352,ls),
(96,393,o),
(108,437,o),
(128,469,cs),
(155,512,o),
(203,555,o),
(239,573,cs),
(275,591,o),
(340,601,o),
(384,598,cs),
(399,597,o),
(409,611,o),
(409,624,cs),
(409,636,o),
(400,647,o),
(388,648,cs),
(335,652,o),
(260,639,o),
(218,619,cs),
(175,596,o),
(115,543,o),
(85,495,cs),
(62,459,o),
(45,402,o),
(35,363,cs),
(30,344,ls),
(23,316,o),
(-2,217,o),
(0,153,cs),
(1,112,o),
(15,60,o),
(41,33,cs),
(58,14,o),
(87,0,o),
(114,0,cs)
);
}
);
width = 409;
}
);
metricLeft = O;
unicode = 67;
},
{
glyphname = D;
lastChange = "2022-01-29 05:28:57 +0000";
layers = (
{
layerId = m002;
shapes = (
{
closed = 1;
nodes = (
(214,0,ls),
(251,0,o),
(289,11,o),
(332,28,cs),
(378,45,o),
(440,78,o),
(481,127,cs),
(502,152,o),
(528,204,o),
(537,234,cs),
(547,266,o),
(558,313,o),
(558,360,cs),
(558,405,o),
(554,456,o),
(542,499,cs),
(534,531,o),
(506,576,o),
(478,599,cs),
(442,628,o),
(378,650,o),
(315,650,cs),
(198,650,ls),
(195,650,o),
(191,646,o),
(191,643,cs),
(191,640,o),
(195,636,o),
(198,636,cs),
(202,636,l),
(90,7,ls),
(89,2,o),
(92,0,o),
(96,0,cs)
);
},
{
closed = 1;
nodes = (
(215,636,l),
(315,636,ls),
(376,636,o),
(436,616,o),
(470,589,cs),
(496,568,o),
(522,525,o),
(530,495,cs),
(540,454,o),
(544,405,o),
(544,360,cs),
(544,315,o),
(535,270,o),
(525,238,cs),
(516,208,o),
(492,160,o),
(471,135,cs),
(432,88,o),
(374,57,o),
(328,40,cs),
(285,23,o),
(249,13,o),
(214,13,cs),
(104,13,l)
);
}
);
width = 636;
},
{
layerId = m003;
shapes = (
{
closed = 1;
nodes = (
(139,0,ls),
(177,0,o),
(215,9,o),
(257,25,cs),
(301,42,o),
(367,77,o),
(408,126,cs),
(429,151,o),
(456,204,o),
(465,234,cs),
(474,264,o),
(484,312,o),
(484,358,cs),
(484,401,o),
(482,452,o),
(470,494,cs),
(462,528,o),
(429,574,o),
(400,598,cs),
(363,628,o),
(298,650,o),
(234,650,cs),
(113,650,ls),
(100,650,o),
(88,639,o),
(88,626,cs),
(88,620,o),
(90,602,o),
(99,600,cs),
(104,599,l),
(0,27,ls),
(-3,11,o),
(8,0,o),
(23,0,cs)
);
},
{
closed = 1;
nodes = (
(155,600,l),
(234,600,ls),
(289,600,o),
(340,583,o),
(369,559,cs),
(391,542,o),
(414,508,o),
(421,482,cs),
(430,444,o),
(434,400,o),
(434,358,cs),
(434,317,o),
(426,277,o),
(417,248,cs),
(408,221,o),
(386,178,o),
(368,156,cs),
(333,114,o),
(283,88,o),
(240,72,cs),
(200,56,o),
(169,50,o),
(139,50,cs),
(55,50,l)
);
}
);
width = 484;
}
);
metricLeft = N;
metricRight = O;
unicode = 68;
},
{
glyphname = E;
lastChange = "2022-01-29 05:29:59 +0000";
layers = (
{
layerId = m002;
shapes = (
{
closed = 1;
nodes = (
(415,0,ls),
(419,0,o),
(421,2,o),
(421,6,cs),
(421,10,o),
(419,12,o),
(415,12,cs),
(84,12,l),
(141,328,l),
(441,328,ls),
(445,328,o),
(447,330,o),
(447,334,cs),
(447,338,o),
(445,340,o),
(441,340,cs),
(143,340,l),
(197,636,l),
(517,636,ls),
(521,636,o),
(523,640,o),
(523,643,cs),
(523,646,o),
(521,650,o),
(517,650,cs),
(177,650,ls),
(174,650,o),
(170,646,o),
(170,643,cs),
(170,640,o),
(174,636,o),
(177,636,cs),
(184,636,l),
(70,6,ls),
(69,2,o),
(71,0,o),
(76,0,cs)
);
}
);
width = 523;
},
{
layerId = m003;
shapes = (
{
closed = 1;
nodes = (
(348,0,ls),
(361,0,o),
(371,9,o),
(371,23,cs),
(371,36,o),
(361,50,o),
(348,50,cs),
(55,50,l),
(102,309,l),
(371,309,ls),
(385,309,o),
(396,320,o),
(396,334,cs),
(396,347,o),
(386,359,o),
(372,359,cs),
(111,359,l),
(155,600,l),
(443,600,ls),
(457,600,o),
(468,614,o),
(468,626,cs),
(468,639,o),
(458,650,o),
(444,650,cs),
(108,650,ls),
(87,650,o),
(85,638,o),
(84,626,cs),
(85,616,o),
(86,603,o),
(99,601,c),
(105,600,l),
(1,26,ls),
(-2,12,o),
(5,0,o),
(30,0,cs)
);
}
);
width = 468;
}
);
unicode = 69;
},
{
glyphname = F;
lastChange = "2022-01-29 05:30:34 +0000";
layers = (
{
layerId = m002;
shapes = (
{
closed = 1;
nodes = (
(79,0,o),
(82,2,o),
(83,7,cs),
(141,328,l),
(442,328,ls),
(446,328,o),
(449,330,o),
(449,334,cs),
(449,338,o),
(446,341,o),
(442,341,cs),
(143,341,l),
(196,637,l),
(533,637,ls),
(536,637,o),
(540,638,o),
(540,643,cs),
(540,648,o),
(536,650,o),
(533,650,cs),
(179,650,ls),
(176,650,o),
(172,648,o),
(172,643,cs),
(172,638,o),
(176,637,o),
(179,637,cs),
(184,637,l),
(70,6,l),
(70,2,o),
(73,0,o),
(76,0,cs)
);
}
);
width = 540;
},
{
layerId = m003;
shapes = (
{
closed = 1;
nodes = (
(41,0,o),
(49,12,o),
(50,20,cs),
(102,309,l),
(374,309,ls),
(387,309,o),
(398,320,o),
(398,334,cs),
(398,347,o),
(387,359,o),
(374,359,cs),
(111,359,l),
(155,600,l),
(460,600,ls),
(472,600,o),
(484,612,o),
(484,626,cs),
(484,641,o),
(472,650,o),
(460,650,cs),
(114,650,ls),
(101,650,o),
(92,641,o),
(89,626,cs),
(87,614,o),
(90,606,o),
(95,601,c),
(105,600,l),
(1,25,ls),
(-2,10,o),
(8,0,o),
(31,0,c)
);
}
);
width = 484;
}
);
metricLeft = E;
metricRight = E;
unicode = 70;
},
{
glyphname = G;
lastChange = "2022-01-28 13:26:49 +0000";
layers = (
{
layerId = m002;
shapes = (
{
closed = 1;
nodes = (
(187,0,o),
(168,4,o),
(152,11,cs),
(127,23,o),
(113,45,o),
(101,64,cs),
(85,92,o),
(77,138,o),
(77,169,cs),
(77,199,o),
(80,237,o),
(87,268,cs),
(91,287,ls),
(99,325,o),
(119,388,o),
(142,452,cs),
(151,480,o),
(179,519,o),
(201,545,cs),
(234,581,o),
(299,621,o),
(354,637,cs),
(387,648,o),
(430,650,o),
(455,650,cs),
(496,650,o),
(521,645,o),
(561,626,cs),
(563,625,o),
(567,621,o),
(565,617,cs),
(563,613,o),
(559,613,o),
(556,614,cs),
(515,633,o),
(496,637,o),
(455,637,cs),
(430,637,o),
(389,634,o),
(358,625,cs),
(303,609,o),
(242,571,o),
(211,537,cs),
(189,511,o),
(163,474,o),
(154,448,cs),
(131,384,o),
(111,320,o),
(104,285,cs),
(100,266,ls),
(94,235,o),
(91,198,o),
(91,169,cs),
(91,138,o),
(97,96,o),
(111,70,c),
(123,53,o),
(135,35,o),
(158,23,cs),
(172,17,o),
(188,13,o),
(205,13,cs),
(221,13,o),
(237,16,o),
(252,23,cs),
(271,32,ls),
(293,43,o),
(323,63,o),
(348,85,cs),
(384,116,o),
(412,152,o),
(436,190,cs),
(444,204,o),
(457,230,o),
(471,258,cs),
(478,274,o),
(485,289,o),
(492,303,cs),
(505,330,ls),
(507,334,o),
(510,334,o),
(514,333,cs),
(518,332,o),
(519,329,o),
(518,325,cs),
(498,250,o),
(463,77,o),
(459,6,cs),
(459,2,o),
(455,0,o),
(452,0,cs),
(449,0,o),
(445,2,o),
(445,6,cs),
(449,64,o),
(471,188,o),
(492,271,c),
(482,252,ls),
(468,225,o),
(455,197,o),
(446,184,cs),
(422,144,o),
(394,106,o),
(356,75,cs),
(331,52,o),
(300,31,o),
(277,20,cs),
(258,11,ls),
(241,3,o),
(223,0,o),
(205,0,cs)
);
}
);
width = 661;
},
{
layerId = m003;
shapes = (
{
closed = 1;
nodes = (
(118,0,o),
(93,2,o),
(77,11,cs),
(53,24,o),
(33,51,o),
(22,71,cs),
(6,98,o),
(-2,148,o),
(0,177,cs),
(2,213,o),
(3,246,o),
(9,273,cs),
(13,291,ls),
(21,328,o),
(38,395,o),
(62,452,cs),
(76,486,o),
(97,518,o),
(119,543,cs),
(151,579,o),
(221,622,o),
(274,638,cs),
(305,648,o),
(352,650,o),
(376,650,cs),
(415,650,o),
(444,647,o),
(484,626,cs),
(496,619,o),
(499,604,o),
(495,595,cs),
(489,584,o),
(477,576,o),
(468,580,cs),
(428,596,o),
(414,600,o),
(375,600,cs),
(351,600,o),
(314,597,o),
(284,588,cs),
(232,573,o),
(186,547,o),
(158,513,cs),
(136,487,o),
(122,467,o),
(109,435,cs),
(86,378,o),
(69,313,o),
(62,283,cs),
(58,265,ls),
(52,237,o),
(51,214,o),
(51,175,cs),
(51,143,o),
(56,119,o),
(67,95,c),
(75,78,o),
(80,69,o),
(96,58,cs),
(106,51,o),
(123,50,o),
(139,50,cs),
(154,50,o),
(167,53,o),
(177,57,cs),
(193,64,ls),
(209,71,o),
(235,90,o),
(258,111,cs),
(293,141,o),
(315,169,o),
(338,205,cs),
(345,218,o),
(361,243,o),
(374,269,cs),
(381,284,o),
(387,298,o),
(394,312,cs),
(406,337,ls),
(412,350,o),
(426,352,o),
(436,350,cs),
(445,347,o),
(455,333,o),
(453,325,cs),
(434,254,o),
(406,89,o),
(398,22,cs),
(397,10,o),
(387,0,o),
(372,0,cs),
(362,0,o),
(347,8,o),
(348,22,cs),
(354,89,o),
(360,122,o),
(367,161,c),
(357,144,ls),
(353,137,o),
(344,126,o),
(334,114,cs),
(325,104,o),
(320,100,o),
(293,75,cs),
(270,54,o),
(232,29,o),
(214,20,cs),
(197,12,ls),
(182,5,o),
(162,0,o),
(139,0,cs)
);
}
);
width = 497;
}
);
metricLeft = O;
metricRight = N;
unicode = 71;
},
{
glyphname = H;
lastChange = "2022-01-29 05:30:17 +0000";
layers = (
{
layerId = m002;
shapes = (
{
closed = 1;
nodes = (
(79,0,o),
(82,1,o),
(83,6,cs),
(141,328,l),
(525,328,l),
(467,7,ls),
(466,2,o),
(470,0,o),
(474,0,cs),
(477,0,o),
(479,3,o),
(480,7,cs),
(595,644,ls),
(596,649,o),
(593,650,o),
(589,650,cs),
(586,650,o),
(583,649,o),
(582,645,cs),
(527,340,l),
(143,340,l),
(198,644,ls),
(199,649,o),
(195,650,o),
(192,650,cs),
(189,650,o),
(186,649,o),
(185,645,cs),
(70,7,ls),
(69,2,o),
(73,0,o),
(76,0,cs)
);
}
);
width = 595;
},
{
layerId = m003;
shapes = (
{
closed = 1;
nodes = (
(38,0,o),
(47,7,o),
(49,20,cs),
(101,310,l),
(431,310,l),
(380,27,ls),
(377,12,o),
(388,0,o),
(403,0,cs),
(415,0,o),
(427,8,o),
(429,20,cs),
(538,624,ls),
(541,639,o),
(528,650,o),
(512,650,cs),
(501,650,o),
(490,643,o),
(488,631,cs),
(439,357,l),
(110,357,l),
(158,624,ls),
(161,639,o),
(151,650,o),
(137,650,cs),
(122,650,o),
(111,643,o),
(109,631,cs),
(0,27,ls),
(-3,12,o),
(9,0,o),
(27,0,cs)
);
}
);
width = 538;
}
);
metricLeft = E;
metricRight = E;
unicode = 72;
},
{
glyphname = I;
lastChange = "2022-01-29 06:34:32 +0000";
layers = (
{
layerId = m002;
shapes = (
{
closed = 1;
nodes = (
(102,0,ls),
(106,0,o),
(108,2,o),
(108,6,cs),
(108,10,o),
(106,13,o),
(102,13,cs),
(61,13,l),
(174,637,l),
(215,637,ls),
(218,637,o),
(222,640,o),
(222,643,cs),
(222,646,o),
(218,650,o),
(215,650,cs),
(120,650,ls),
(116,650,o),
(114,646,o),
(114,643,cs),
(114,640,o),
(116,637,o),
(120,637,cs),
(161,637,l),
(48,13,l),
(7,13,ls),
(4,13,o),
(0,10,o),
(0,6,cs),
(0,2,o),
(4,0,o),
(7,0,cs)
);
}
);
width = 207;
},
{
layerId = m003;
shapes = (
{
closed = 1;
nodes = (
(114,0,ls),
(128,0,o),
(138,10,o),
(138,23,cs),
(138,37,o),
(128,50,o),
(114,50,cs),
(97,50,l),
(197,600,l),
(221,600,ls),
(234,600,o),
(246,613,o),
(246,626,cs),
(246,638,o),
(234,650,o),
(221,650,cs),
(132,650,ls),
(118,650,o),
(108,638,o),
(108,626,cs),
(108,614,o),
(118,600,o),
(132,600,cs),
(147,600,l),
(47,50,l),
(25,50,ls),
(12,50,o),
(0,37,o),
(0,23,cs),
(0,10,o),
(12,0,o),
(25,0,cs)
);
}
);
width = 246;
}
);
unicode = 73;
},
{
glyphname = J;
lastChange = "2022-01-29 06:51:05 +0000";
layers = (
{
layerId = m002;
shapes = (
{
closed = 1;
nodes = (
(106,0,ls),
(145,0,o),
(177,8,o),
(206,32,cs),
(241,60,o),
(264,111,o),
(280,154,cs),
(294,188,o),
(362,568,o),
(374,636,c),
(545,636,ls),
(549,636,o),
(551,640,o),
(551,643,cs),
(551,646,o),
(549,650,o),
(545,650,cs),
(177,650,ls),
(173,650,o),
(171,646,o),
(171,643,cs),
(171,640,o),
(173,636,o),
(177,636,cs),
(361,636,l),
(349,569,o),
(281,192,o),
(268,158,cs),
(252,117,o),
(231,68,o),
(198,42,cs),
(171,20,o),
(143,12,o),
(106,12,cs),
(6,12,ls),
(2,12,o),
(0,10,o),
(0,6,cs),
(0,2,o),
(2,0,o),
(6,0,cs)
);
}
);
width = 501;
},
{
layerId = m003;
shapes = (
{
closed = 1;
nodes = (
(118,0,ls),
(158,0,o),
(193,9,o),
(224,34,cs),
(260,63,o),
(286,116,o),
(301,157,cs),
(314,188,o),
(372,507,o),
(388,599,c),
(534,599,ls),
(547,599,o),
(557,613,o),
(557,626,cs),
(557,638,o),
(547,650,o),
(534,650,cs),
(185,650,ls),
(172,650,o),
(162,638,o),
(162,626,cs),
(162,613,o),
(172,599,o),
(185,599,cs),
(337,599,l),
(320,501,o),
(265,201,o),
(254,173,cs),
(239,135,o),
(221,95,o),
(193,73,cs),
(170,54,o),
(151,50,o),
(118,50,cs),
(23,50,ls),
(10,50,o),
(0,36,o),
(0,23,cs),
(0,10,o),
(10,0,o),
(23,0,cs)
);
}
);
width = 557;
}
);
unicode = 74;
},
{
glyphname = K;
lastChange = "2022-01-29 06:48:36 +0000";
layers = (
{
layerId = m002;
shapes = (
{
closed = 1;
nodes = (
(100,0,o),
(102,2,o),
(103,6,cs),
(160,321,l),
(428,3,ls),
(430,1,o),
(433,0,o),
(435,0,cs),
(438,0,o),
(441,2,o),
(441,6,cs),
(441,8,o),
(440,10,o),
(438,12,cs),
(167,333,l),
(564,638,ls),
(565,639,o),
(567,641,o),
(567,643,cs),
(567,646,o),
(563,650,o),
(560,650,cs),
(559,650,o),
(557,649,o),
(556,648,cs),
(165,348,l),
(218,643,ls),
(219,648,o),
(215,650,o),
(212,650,cs),
(209,650,o),
(206,649,o),
(205,644,cs),
(90,7,ls),
(89,3,o),
(93,0,o),
(97,0,cs)
);
}
);
width = 567;
},
{
layerId = m003;
shapes = (
{
closed = 1;
nodes = (
(35,0,o),
(48,5,o),
(50,18,cs),
(97,284,l),
(329,8,ls),
(334,2,o),
(342,1,o),
(348,0,cs),
(360,1,o),
(374,12,o),
(374,23,cs),
(374,25,o),
(374,33,o),
(369,38,cs),
(124,330,l),
(484,606,ls),
(490,611,o),
(491,618,o),
(491,624,cs),
(491,635,o),
(483,647,o),
(471,649,cs),
(465,650,o),
(458,650,o),
(455,647,cs),
(117,388,l),
(159,625,ls),
(161,639,o),
(146,650,o),
(136,650,cs),
(126,650,o),
(112,645,o),
(109,631,cs),
(0,27,ls),
(-3,13,o),
(10,0,o),
(22,0,cs)
);
}
);
width = 491;
}
);
metricLeft = N;
metricRight = E;
unicode = 75;
},
{
glyphname = L;
lastChange = "2022-01-29 05:34:29 +0000";
layers = (
{
layerId = m002;
shapes = (
{
closed = 1;
nodes = (
(431,0,ls),
(435,0,o),
(437,2,o),
(437,6,cs),
(437,10,o),
(435,13,o),
(431,13,cs),
(104,13,l),
(218,643,l),
(219,646,o),
(216,650,o),
(212,650,cs),
(209,650,o),
(206,648,o),
(205,645,c),
(90,8,ls),
(89,3,o),
(91,0,o),
(95,0,cs)
);
}
);
width = 532;
},
{
layerId = m003;
shapes = (
{
closed = 1;
nodes = (
(341,0,ls),
(354,0,o),
(364,10,o),
(364,23,cs),
(364,37,o),
(354,50,o),
(341,50,cs),
(56,50,l),
(160,622,ls),
(163,636,o),
(153,650,o),
(138,650,cs),
(127,650,o),
(112,643,o),
(110,632,cs),
(1,28,ls),
(-2,13,o),
(8,0,o),
(23,0,cs)
);
}
);
width = 364;
}
);
metricLeft = N;
metricRight = N;
unicode = 76;
},
{
glyphname = M;
lastChange = "2022-01-29 05:01:35 +0000";
layers = (
{
layerId = m002;
shapes = (
{
closed = 1;
nodes = (
(9,0,o),
(12,1,o),
(14,5,cs),
(326,625,l),
(373,8,ls),
(373,5,o),
(376,1,o),
(380,1,cs),
(384,1,o),
(388,3,o),
(390,7,cs),
(697,625,l),
(741,5,ls),
(741,1,o),
(744,0,o),
(747,0,cs),
(750,0,o),
(754,2,o),
(754,6,cs),
(709,643,ls),
(709,647,o),
(706,650,o),
(701,650,cs),
(697,650,o),
(695,649,o),
(693,646,cs),
(385,26,l),
(338,643,ls),
(338,647,o),
(334,650,o),
(331,650,cs),
(327,650,o),
(324,649,o),
(322,646,cs),
(1,8,ls),
(-1,4,o),
(3,0,o),
(6,0,cs)
);
}
);
width = 829;
},
{
layerId = m003;
shapes = (
{
closed = 1;
nodes = (
(35,0,o),
(44,5,o),
(49,14,cs),
(316,545,l),
(356,24,ls),
(357,12,o),
(367,1,o),
(380,1,cs),
(390,1,o),
(402,7,o),
(407,16,cs),
(668,538,l),
(704,21,ls),
(705,8,o),
(715,0,o),
(727,0,cs),
(740,0,o),
(755,10,o),
(754,24,cs),
(712,627,ls),
(711,640,o),
(697,650,o),
(684,650,cs),
(675,650,o),
(666,646,o),
(661,637,c),
(399,113,l),
(360,627,ls),
(359,640,o),
(346,650,o),
(333,650,cs),
(324,650,o),
(312,646,o),
(307,637,c),
(2,33,ls),
(-6,17,o),
(10,0,o),
(26,0,cs)
);
}
);
width = 754;
}
);
metricRight = A;
unicode = 77;
},
{
glyphname = N;
lastChange = "2022-01-28 13:18:08 +0000";
layers = (
{
layerId = m002;
shapes = (
{
closed = 1;
nodes = (
(99,0,o),
(102,1,o),
(103,5,cs),
(215,626,l),
(513,3,l),
(515,0,o),
(518,0,o),
(522,0,c),
(522,0,o),
(525,1,o),
(526,4,c),
(642,644,ls),
(643,649,o),
(638,650,o),
(635,650,cs),
(632,650,o),
(630,648,o),
(629,644,cs),
(517,26,l),
(220,646,ls),
(219,649,o),
(216,650,o),
(212,650,cs),
(207,650,o),
(206,647,o),
(205,643,cs),
(90,8,ls),
(89,3,o),
(91,0,o),
(96,0,cs)
);
}
);
width = 737;
},
{
layerId = m003;
shapes = (
{
closed = 1;
nodes = (
(38,0,o),
(48,7,o),
(50,19,cs),
(147,553,l),
(406,12,l),
(412,2,o),
(421,-1,o),
(431,0,cs),
(443,1,o),
(451,8,o),
(453,18,cs),
(563,623,ls),
(566,640,o),
(553,650,o),
(536,650,cs),
(525,650,o),
(516,642,o),
(514,630,cs),
(418,103,l),
(163,636,l),
(159,645,o),
(149,650,o),
(136,650,cs),
(120,650,o),
(112,642,o),
(110,629,cs),
(1,28,ls),
(-2,13,o),
(8,0,o),
(27,0,cs)
);
}
);
width = 563;
}
);
unicode = 78;
},
{
glyphname = O;
lastChange = "2022-01-28 13:19:08 +0000";
layers = (
{
layerId = m002;
shapes = (
{
closed = 1;
nodes = (
(279,1,o),
(321,18,o),
(342,34,cs),
(473,131,o),
(544,284,o),
(544,416,cs),
(544,464,o),
(537,513,o),
(516,551,cs),
(501,580,o),
(474,616,o),
(442,633,cs),
(418,644,o),
(392,650,o),
(366,650,cs),
(346,650,o),
(325,647,o),
(307,640,cs),
(242,615,o),
(196,583,o),
(144,505,cs),
(117,465,o),
(101,413,o),
(91,371,cs),
(84,342,o),
(77,288,o),
(77,236,cs),
(77,216,o),
(77,196,o),
(79,176,cs),
(84,106,o),
(118,56,o),
(159,27,cs),
(177,13,o),
(210,1,o),
(243,1,cs)
);
},
{
closed = 1;
nodes = (
(90,288,o),
(97,341,o),
(103,367,cs),
(113,409,o),
(127,459,o),
(154,496,cs),
(207,576,o),
(248,603,o),
(311,628,cs),
(329,634,o),
(347,637,o),
(366,637,cs),
(391,637,o),
(414,631,o),
(436,621,cs),
(465,606,o),
(490,573,o),
(504,546,cs),
(525,509,o),
(531,462,o),
(531,416,cs),
(531,287,o),
(462,140,o),
(334,44,cs),
(315,30,o),
(278,14,o),
(243,14,cs),
(212,14,o),
(183,25,o),
(167,37,cs),
(128,66,o),
(97,110,o),
(92,176,cs),
(91,196,o),
(90,216,o),
(90,236,cs)
);
}
);
width = 622;
},
{
layerId = m003;
shapes = (
{
closed = 1;
nodes = (
(226,0,o),
(262,22,o),
(283,38,cs),
(407,134,o),
(479,291,o),
(479,416,cs),
(479,462,o),
(469,515,o),
(449,551,cs),
(435,579,o),
(400,617,o),
(370,633,cs),
(347,644,o),
(316,650,o),
(291,649,cs),
(264,650,o),
(239,644,o),
(220,636,cs),
(164,614,o),
(110,569,o),
(64,501,cs),
(41,467,o),
(19,410,o),
(12,373,cs),
(7,345,o),
(0,290,o),
(0,241,cs),
(0,222,o),
(0,199,o),
(2,180,cs),
(6,113,o),
(44,57,o),
(82,30,cs),
(100,17,o),
(134,0,o),
(174,0,cs)
);
},
{
closed = 1;
nodes = (
(50,290,o),
(57,338,o),
(62,363,cs),
(70,400,o),
(86,446,o),
(109,478,cs),
(155,542,o),
(178,559,o),
(233,587,cs),
(250,596,o),
(268,599,o),
(291,599,cs),
(315,599,o),
(329,597,o),
(350,587,cs),
(378,573,o),
(391,554,o),
(404,528,cs),
(424,493,o),
(429,459,o),
(429,415,cs),
(429,293,o),
(361,169,o),
(253,76,cs),
(236,62,o),
(205,51,o),
(176,51,cs),
(147,51,o),
(128,58,o),
(113,70,cs),
(78,97,o),
(57,125,o),
(52,187,cs),
(51,206,o),
(50,222,o),
(50,241,cs)
);
}
);
width = 479;
}
);
unicode = 79;
},
{
glyphname = P;
lastChange = "2022-01-28 13:21:28 +0000";
layers = (
{
layerId = m002;
shapes = (
{
closed = 1;
nodes = (
(100,0,o),
(102,2,o),
(103,6,cs),
(161,328,l),
(239,328,o),
(330,329,o),
(361,334,cs),
(424,344,o),
(475,361,o),
(504,397,cs),
(524,423,o),
(536,468,o),
(536,514,cs),
(535,554,o),
(506,598,o),
(475,615,c),
(465,622,o),
(445,633,o),
(426,637,cs),
(386,646,o),
(350,650,o),
(307,650,cs),
(200,650,ls),
(197,650,o),
(193,646,o),
(193,643,cs),
(193,640,o),
(197,637,o),
(200,637,cs),
(204,637,l),
(90,7,ls),
(89,2,o),
(92,0,o),
(96,0,cs)
);
},
{
closed = 1;
nodes = (
(217,637,l),
(307,637,ls),
(348,637,o),
(385,634,o),
(424,625,cs),
(442,621,o),
(458,612,o),
(469,604,cs),
(498,583,o),
(523,550,o),
(523,514,cs),
(523,470,o),
(512,429,o),
(494,405,cs),
(467,371,o),
(418,356,o),
(359,348,cs),
(330,343,o),
(240,341,o),
(163,341,c)
);
}
);
width = 614;
},
{
layerId = m003;
shapes = (
{
closed = 1;
nodes = (
(35,0,o),
(48,8,o),
(50,19,cs),
(102,308,l),
(172,308,o),
(252,311,o),
(280,315,cs),
(329,322,o),
(401,345,o),
(430,382,cs),
(451,409,o),
(467,458,o),
(463,504,cs),
(459,548,o),
(437,581,o),
(409,604,cs),
(382,626,o),
(354,636,o),
(334,640,cs),
(310,645,o),
(266,650,o),
(226,650,cs),
(124,650,ls),
(106,650,o),
(99,639,o),
(97,626,cs),
(96,619,o),
(95,600,o),
(102,599,c),
(104,599,l),
(0,27,ls),
(-3,11,o),
(8,0,o),
(23,0,cs)
);
},
{
closed = 1;
nodes = (
(155,600,l),
(226,600,ls),
(264,600,o),
(302,595,o),
(318,592,cs),
(329,590,o),
(350,584,o),
(368,572,cs),
(391,557,o),
(411,533,o),
(413,504,cs),
(416,465,o),
(407,430,o),
(390,412,cs),
(368,388,o),
(314,372,o),
(273,365,cs),
(249,361,o),
(178,358,o),
(111,358,c)
);
}
);
width = 464;
}
);
metricLeft = N;
metricRight = O;
unicode = 80;
},
{
glyphname = Q;
lastChange = "2022-01-28 13:21:28 +0000";
layers = (
{
layerId = m002;
shapes = (
{
closed = 1;
nodes = (
(274,0,o),
(308,12,o),
(328,24,cs),
(336,29,o),
(347,37,o),
(355,44,c),
(385,2,ls),
(386,1,o),
(388,0,o),
(390,0,cs),
(394,0,o),
(396,2,o),
(396,6,cs),
(396,7,o),
(396,9,o),
(395,10,cs),
(365,53,l),
(481,155,o),
(546,314,o),
(546,437,cs),
(546,477,o),
(539,519,o),
(521,552,cs),
(505,580,o),
(476,618,o),
(444,633,cs),
(421,644,o),
(393,650,o),
(367,650,cs),
(347,650,o),
(326,647,o),
(308,640,cs),
(243,616,o),
(197,581,o),
(144,502,cs),
(116,464,o),
(102,406,o),
(89,364,cs),
(81,338,o),
(77,289,o),
(77,236,cs),
(77,216,o),
(78,196,o),
(80,176,cs),
(87,106,o),
(118,50,o),
(159,21,cs),
(178,7,o),
(209,0,o),
(240,0,cs)
);
},
{
closed = 1;
nodes = (
(90,288,o),
(94,335,o),
(101,360,cs),
(113,402,o),
(127,458,o),
(154,494,cs),
(207,573,o),
(249,604,o),
(312,628,cs),
(330,634,o),
(348,637,o),
(367,637,cs),
(392,637,o),
(416,632,o),
(438,621,cs),
(468,608,o),
(494,572,o),
(509,546,cs),
(528,509,o),
(533,478,o),
(533,437,cs),
(533,318,o),
(470,164,o),
(357,63,c),
(301,143,l),
(299,145,o),
(297,146,o),
(293,144,cs),
(289,142,o),
(288,139,o),
(291,135,cs),
(348,55,l),
(340,48,o),
(329,39,o),
(320,34,cs),
(302,24,o),
(272,13,o),
(240,13,cs),
(210,13,o),
(183,19,o),
(167,31,cs),
(128,60,o),
(101,111,o),
(94,176,cs),
(92,196,o),
(90,216,o),
(90,236,cs)
);
}
);
width = 624;
},
{
layerId = m003;
shapes = (
{
closed = 1;
nodes = (
(213,0,o),
(241,13,o),
(260,22,cs),
(264,24,o),
(274,29,o),
(279,33,c),
(297,7,ls),
(300,3,o),
(307,0,o),
(315,0,cs),
(325,0,o),
(337,9,o),
(337,21,cs),
(337,28,o),
(336,33,o),
(333,37,cs),
(313,64,l),
(421,166,o),
(479,298,o),
(479,431,cs),
(479,463,o),
(466,520,o),
(450,548,cs),
(432,580,o),
(402,618,o),
(371,632,cs),
(350,643,o),
(317,650,o),
(292,650,cs),
(267,650,o),
(246,645,o),
(229,639,cs),
(167,616,o),
(114,575,o),
(64,500,cs),
(37,464,o),
(19,407,o),
(10,361,cs),
(5,334,o),
(1,292,o),
(0,240,cs),
(0,221,o),
(1,196,o),
(2,177,cs),
(7,113,o),
(43,59,o),
(84,28,cs),
(105,12,o),
(142,0,o),
(172,0,cs)
);
},
{
closed = 1;
nodes = (
(50,290,o),
(55,330,o),
(60,353,cs),
(68,393,o),
(84,446,o),
(110,480,cs),
(160,554,o),
(216,582,o),
(244,592,cs),
(261,598,o),
(274,599,o),
(292,599,cs),
(316,599,o),
(330,597,o),
(351,586,cs),
(378,572,o),
(395,548,o),
(407,523,cs),
(420,496,o),
(428,470,o),
(429,431,cs),
(431,318,o),
(386,206,o),
(284,105,c),
(242,164,l),
(235,172,o),
(228,175,o),
(214,169,cs),
(200,158,o),
(196,148,o),
(208,132,cs),
(250,73,l),
(247,71,o),
(242,68,o),
(238,66,cs),
(221,58,o),
(202,49,o),
(172,50,cs),
(143,51,o),
(131,56,o),
(115,68,cs),
(78,96,o),
(57,125,o),
(52,187,cs),
(50,206,o),
(50,222,o),
(50,241,cs)
);
}
);
width = 479;
}
);
metricLeft = O;
metricRight = O;
unicode = 81;
},
{
glyphname = R;
lastChange = "2022-01-28 13:21:28 +0000";
layers = (
{
layerId = m002;
shapes = (
{
closed = 1;
nodes = (
(99,0,o),
(102,2,o),
(103,7,cs),
(161,328,l),
(164,328,l),
(486,2,ls),
(488,0,o),
(489,0,o),
(491,0,cs),
(494,0,o),
(498,2,o),
(498,6,cs),
(498,8,o),
(497,9,o),
(496,10,cs),
(181,328,l),
(230,328,o),
(327,328,o),
(357,332,cs),
(417,339,o),
(472,356,o),
(500,394,cs),
(521,421,o),
(534,464,o),
(532,509,cs),
(531,549,o),
(505,587,o),
(479,608,cs),
(464,619,o),
(449,628,o),
(425,634,cs),
(386,645,o),
(348,650,o),
(306,650,cs),
(202,650,ls),
(198,650,o),
(196,646,o),
(196,643,cs),
(196,640,o),
(198,637,o),
(202,637,cs),
(204,637,l),
(90,7,ls),
(89,2,o),
(92,0,o),
(96,0,cs)
);
},
{
closed = 1;
nodes = (
(217,637,l),
(306,637,ls),
(348,637,o),
(383,634,o),
(423,622,cs),
(443,616,o),
(456,609,o),
(471,596,cs),
(496,576,o),
(518,545,o),
(519,509,cs),
(519,466,o),
(509,427,o),
(490,402,cs),
(464,368,o),
(415,351,o),
(355,344,cs),
(325,341,o),
(237,341,o),
(189,341,cs),
(163,341,l)
);
}
);
width = 610;
},
{
layerId = m003;
shapes = (
{
closed = 1;
nodes = (
(36,0,o),
(47,3,o),
(50,21,cs),
(99,291,l),
(100,289,l),
(377,10,ls),
(384,3,o),
(389,0,o),
(397,0,cs),
(406,0,o),
(425,10,o),
(425,25,cs),
(425,33,o),
(421,37,o),
(418,40,cs),
(149,311,l),
(196,311,o),
(252,313,o),
(280,317,cs),
(337,324,o),
(395,341,o),
(424,382,cs),
(447,412,o),
(458,455,o),
(457,498,cs),
(456,541,o),
(430,583,o),
(406,603,cs),
(392,614,o),
(368,629,o),
(345,635,cs),
(308,645,o),
(265,650,o),
(225,650,cs),
(122,650,ls),
(110,650,o),
(100,634,o),
(98,628,cs),
(97,621,o),
(95,610,o),
(99,606,cs),
(105,600,l),
(0,27,ls),
(-2,14,o),
(5,0,o),
(22,0,cs)
);
},
{
closed = 1;
nodes = (
(155,600,l),
(225,600,ls),
(266,600,o),
(290,599,o),
(328,588,cs),
(347,582,o),
(355,580,o),
(370,567,cs),
(393,548,o),
(406,531,o),
(407,497,cs),
(407,456,o),
(401,436,o),
(382,411,cs),
(358,379,o),
(330,374,o),
(272,366,cs),
(244,362,o),
(183,362,o),
(137,362,cs),
(112,362,l)
);
}
);
width = 457;
}
);
metricLeft = N;
metricRight = O;
unicode = 82;
},
{
glyphname = S;
lastChange = "2022-01-28 13:21:28 +0000";
layers = (
{
layerId = m002;
shapes = (
{
closed = 1;
nodes = (
(167,0,ls),
(202,0,o),
(269,8,o),
(304,22,cs),
(349,40,o),
(375,58,o),
(394,79,cs),
(412,99,o),
(434,131,o),
(434,163,cs),
(434,229,o),
(359,283,o),
(281,347,cs),
(269,356,o),
(259,365,o),
(248,373,cs),
(183,425,o),
(138,461,o),
(138,502,cs),
(138,536,o),
(168,579,o),
(197,600,cs),
(222,618,o),
(263,637,o),
(310,636,cs),
(512,631,ls),
(515,631,o),
(519,635,o),
(519,638,cs),
(519,641,o),
(515,645,o),
(512,645,cs),
(310,650,ls),
(259,651,o),
(216,630,o),
(191,612,cs),
(158,588,o),
(125,540,o),
(125,502,cs),
(125,454,o),
(175,414,o),
(240,363,cs),
(251,355,o),
(261,346,o),
(273,337,cs),
(351,273,o),
(420,223,o),
(420,163,cs),
(420,135,o),
(402,107,o),
(384,87,cs),
(367,68,o),
(343,52,o),
(300,34,cs),
(267,20,o),
(202,12,o),
(167,12,cs),
(43,12,ls),
(40,12,o),
(36,10,o),
(36,6,cs),
(36,2,o),
(40,0,o),
(43,0,cs)
);
}
);
width = 597;
},
{
layerId = m003;
shapes = (
{
closed = 1;
nodes = (
(141,0,ls),
(175,0,o),
(243,6,o),
(278,21,cs),
(323,38,o),
(352,59,o),
(372,81,cs),
(390,101,o),
(413,136,o),
(413,172,cs),
(413,246,o),
(334,300,o),
(261,361,cs),
(255,365,o),
(235,381,o),
(229,386,cs),
(168,437,o),
(132,462,o),
(132,492,cs),
(132,519,o),
(158,552,o),
(183,570,cs),
(205,586,o),
(235,600,o),
(276,600,cs),
(468,600,ls),
(481,600,o),
(491,613,o),
(491,626,cs),
(491,638,o),
(480,650,o),
(467,650,cs),
(277,650,ls),
(224,650,o),
(179,628,o),
(154,610,cs),
(119,585,o),
(82,538,o),
(82,492,cs),
(82,438,o),
(136,398,o),
(199,347,cs),
(204,343,o),
(224,327,o),
(229,323,cs),
(303,262,o),
(363,218,o),
(363,172,cs),
(363,151,o),
(349,130,o),
(333,112,cs),
(319,96,o),
(297,84,o),
(258,67,cs),
(229,55,o),
(173,50,o),
(141,50,cs),
(24,50,ls),
(11,50,o),
(0,37,o),
(0,24,cs),
(0,10,o),
(11,0,o),
(24,0,cs)
);
}
);
width = 491;
}
);
metricRight = O;
unicode = 83;
},
{
glyphname = T;
lastChange = "2022-01-29 05:37:21 +0000";
layers = (
{
layerId = m002;
shapes = (
{
closed = 1;
nodes = (
(135,0,o),
(138,2,o),
(139,5,c),
(253,637,l),
(425,637,ls),
(429,637,o),
(431,640,o),
(431,643,cs),
(431,646,o),
(429,650,o),
(425,650,cs),
(67,650,ls),
(63,650,o),
(61,646,o),
(61,643,cs),
(61,640,o),
(63,637,o),
(67,637,cs),
(240,637,l),
(126,6,l),
(126,2,o),
(129,0,o),
(132,0,cs)
);
}
);
width = 431;
},
{
layerId = m003;
shapes = (
{
closed = 1;
nodes = (
(105,0,o),
(114,10,o),
(115,18,cs),
(220,600,l),
(369,600,ls),
(382,600,o),
(392,611,o),
(392,623,cs),
(392,636,o),
(382,650,o),
(369,650,cs),
(23,650,ls),
(10,650,o),
(0,636,o),
(0,623,cs),
(0,611,o),
(10,600,o),
(23,600,cs),
(169,600,l),
(65,25,l),
(63,5,o),
(73,0,o),
(91,0,cs)
);
}
);
width = 392;
}
);
unicode = 84;
},
{
glyphname = U;
lastChange = "2022-01-28 13:21:28 +0000";
layers = (
{
layerId = m002;
shapes = (
{
closed = 1;
nodes = (
(204,0,o),
(261,43,o),
(305,88,cs),
(348,132,o),
(413,208,o),
(450,268,cs),
(474,306,o),
(501,350,o),
(527,421,c),
(452,6,ls),
(451,2,o),
(456,0,o),
(459,0,cs),
(462,0,o),
(464,2,o),
(465,6,cs),
(581,644,ls),
(582,648,o),
(578,651,o),
(575,651,cs),
(572,651,o),
(569,649,o),
(568,645,cs),
(542,500,l),
(502,381,o),
(470,325,o),
(438,275,cs),
(403,217,o),
(338,140,o),
(295,96,cs),
(253,53,o),
(200,12,o),
(156,12,cs),
(117,12,o),
(101,40,o),
(96,52,cs),
(93,61,o),
(91,80,o),
(91,101,cs),
(91,121,o),
(93,141,o),
(97,166,cs),
(104,210,o),
(181,642,o),
(181,642,c),
(182,646,o),
(181,650,o),
(175,650,cs),
(170,650,o),
(167,647,o),
(167,644,c),
(167,644,o),
(88,212,o),
(83,168,cs),
(80,143,o),
(77,122,o),
(77,101,cs),
(77,80,o),
(79,58,o),
(83,48,cs),
(88,33,o),
(111,0,o),
(156,0,cs)
);
}
);
width = 676;
},
{
layerId = m003;
shapes = (
{
closed = 1;
nodes = (
(156,-2,o),
(211,45,o),
(252,87,cs),
(293,129,o),
(350,201,o),
(386,257,cs),
(397,274,o),
(402,282,o),
(406,289,c),
(357,23,ls),
(354,9,o),
(368,0,o),
(383,0,cs),
(398,0,o),
(405,9,o),
(408,23,cs),
(518,619,ls),
(521,638,o),
(508,650,o),
(497,650,cs),
(485,650,o),
(472,642,o),
(468,623,cs),
(444,494,l),
(406,381,o),
(374,330,o),
(343,283,cs),
(310,228,o),
(256,164,o),
(216,122,cs),
(176,82,o),
(133,49,o),
(95,49,cs),
(68,49,o),
(59,61,o),
(54,72,cs),
(51,81,o),
(50,94,o),
(50,114,cs),
(50,133,o),
(52,151,o),
(56,175,cs),
(62,216,o),
(135,615,o),
(135,615,c),
(138,632,o),
(133,649,o),
(113,649,cs),
(97,649,o),
(88,636,o),
(86,625,c),
(86,625,o),
(10,220,o),
(5,178,cs),
(2,155,o),
(0,135,o),
(0,115,cs),
(0,95,o),
(1,75,o),
(5,60,cs),
(12,35,o),
(37,0,o),
(95,-1,cs)
);
}
);
width = 518;
}
);
metricLeft = O;
metricRight = N;
unicode = 85;
},
{
glyphname = V;
kernLeft = "0";
lastChange = "2022-01-28 13:35:28 +0000";
layers = (
{
layerId = m002;
shapes = (
{
closed = 1;
nodes = (
(500,643,l),
(502,648,o),
(496,650,o),
(493,650,cs),
(490,650,o),
(488,648,o),
(487,646,cs),
(173,25,l),
(133,644,ls),
(133,649,o),
(129,650,o),
(126,650,cs),
(122,650,o),
(120,648,o),
(120,644,cs),
(161,5,ls),
(161,-1,o),
(173,-2,o),
(176,3,cs)
);
}
);
width = 500;
},
{
layerId = m003;
shapes = (
{
closed = 1;
nodes = (
(492,619,l),
(501,638,o),
(480,650,o),
(466,650,cs),
(451,650,o),
(445,638,o),
(441,631,cs),
(156,99,l),
(51,622,ls),
(46,646,o),
(36,650,o),
(26,650,cs),
(8,650,o),
(-3,638,o),
(1,617,cs),
(122,14,ls),
(126,-4,o),
(158,-4,o),
(165,9,cs)
);
}
);
width = 494;
}
);
unicode = 86;
},
{
glyphname = W;
lastChange = "2022-01-28 13:35:43 +0000";
layers = (
{
layerId = m002;
shapes = (
{
closed = 1;
nodes = (
(172,0,o),
(175,1,o),
(177,4,cs),
(491,625,l),
(531,7,ls),
(531,4,o),
(534,0,o),
(539,0,cs),
(542,0,o),
(544,1,o),
(546,4,c),
(856,642,ls),
(858,647,o),
(854,650,o),
(850,650,cs),
(847,650,o),
(845,649,o),
(843,645,cs),
(543,26,l),
(503,643,ls),
(503,648,o),
(500,650,o),
(497,650,cs),
(492,650,o),
(489,649,o),
(487,646,cs),
(173,25,l),
(133,644,ls),
(133,647,o),
(130,650,o),
(127,650,cs),
(123,650,o),
(120,647,o),
(120,643,cs),
(161,7,ls),
(161,4,o),
(164,0,o),
(168,0,cs)
);
}
);
width = 857;
},
{
layerId = m003;
shapes = (
{
closed = 1;
nodes = (
(72,0,o),
(87,4,o),
(92,13,c),
(361,544,l),
(391,23,ls),
(392,11,o),
(401,0,o),
(416,0,cs),
(430,0,o),
(441,5,o),
(445,13,c),
(735,618,ls),
(744,636,o),
(726,650,o),
(711,650,cs),
(701,650,o),
(692,645,o),
(688,636,cs),
(436,109,l),
(407,627,ls),
(406,640,o),
(392,650,o),
(380,650,cs),
(367,650,o),
(357,646,o),
(352,637,c),
(83,106,l),
(50,628,ls),
(49,640,o),
(39,650,o),
(27,650,cs),
(13,650,o),
(-1,639,o),
(0,625,cs),
(38,23,ls),
(39,11,o),
(50,0,o),
(63,0,cs)
);
}
);
width = 737;
}
);
metricLeft = V;
metricRight = V;
unicode = 87;
},
{
glyphname = X;
lastChange = "2022-01-28 13:38:13 +0000";
layers = (
{
layerId = m002;
shapes = (
{
closed = 1;
nodes = (
(129,0,o),
(131,1,o),
(133,3,cs),
(381,320,l),
(525,4,ls),
(526,1,o),
(528,0,o),
(531,0,cs),
(536,0,o),
(540,3,o),
(537,9,cs),
(390,332,l),
(635,639,ls),
(640,645,o),
(635,650,o),
(630,650,cs),
(628,650,o),
(627,649,o),
(625,647,cs),
(384,345,l),
(246,646,ls),
(245,648,o),
(243,650,o),
(240,650,cs),
(236,650,o),
(231,647,o),
(233,643,cs),
(375,333,l),
(122,10,ls),
(117,4,o),
(122,0,o),
(127,0,cs)
);
}
);
width = 732;
},
{
layerId = m003;
shapes = (
{
closed = 1;
nodes = (
(32,0,o),
(41,3,o),
(46,9,c),
(262,285,l),
(384,15,ls),
(388,5,o),
(398,0,o),
(408,0,cs),
(426,0,o),
(439,15,o),
(431,33,cs),
(297,329,l),
(522,611,ls),
(536,628,o),
(521,650,o),
(502,650,cs),
(494,650,o),
(486,646,o),
(482,641,cs),
(273,379,l),
(156,636,ls),
(152,644,o),
(142,650,o),
(132,650,cs),
(117,650,o),
(101,635,o),
(109,618,cs),
(238,335,l),
(5,38,ls),
(-9,21,o),
(6,0,o),
(25,0,cs)
);
}
);
width = 527;
}
);
metricLeft = V;
metricRight = N;
unicode = 88;
},
{
glyphname = Y;
kernLeft = "0";
kernRight = "0";
lastChange = "2022-01-28 13:35:49 +0000";
layers = (
{
layerId = m002;
shapes = (
{
closed = 1;
nodes = (
(218,0,o),
(221,2,o),
(222,7,cs),
(278,317,l),
(547,642,ls),
(549,645,o),
(545,650,o),
(540,650,cs),
(538,650,o),
(536,649,o),
(535,648,cs),
(275,334,l),
(133,646,ls),
(132,648,o),
(130,650,o),
(127,650,cs),
(124,650,o),
(119,646,o),
(120,643,cs),
(266,322,l),
(209,7,ls),
(208,2,o),
(211,0,o),
(215,0,cs)
);
}
);
width = 548;
},
{
layerId = m003;
shapes = (
{
closed = 1;
nodes = (
(121,0,o),
(133,5,o),
(136,22,cs),
(188,311,l),
(442,617,ls),
(447,624,o),
(443,650,o),
(420,650,cs),
(412,650,o),
(405,650,o),
(399,643,cs),
(172,369,l),
(51,633,ls),
(47,643,o),
(38,650,o),
(28,650,cs),
(4,650,o),
(-3,631,o),
(1,622,cs),
(139,320,l),
(86,24,ls),
(84,12,o),
(96,0,o),
(110,0,cs)
);
}
);
width = 444;
}
);
metricLeft = V;
metricRight = V;
unicode = 89;
},
{
glyphname = Z;
lastChange = "2022-01-29 05:38:49 +0000";
layers = (
{
layerId = m002;
shapes = (
{
closed = 1;
nodes = (
(599,0,ls),
(603,0,o),
(605,2,o),
(605,6,cs),
(605,10,o),
(603,13,o),
(599,13,cs),
(113,13,l),
(620,642,ls),
(623,646,o),
(622,650,o),
(616,650,cs),
(212,650,ls),
(209,650,o),
(205,646,o),
(205,643,cs),
(205,640,o),
(209,637,o),
(212,637,cs),
(599,637,l),
(92,8,ls),
(88,3,o),
(90,0,o),
(96,0,cs)
);
}
);
width = 717;
},
{
layerId = m003;
shapes = (
{
closed = 1;
nodes = (
(501,0,ls),
(514,0,o),
(524,10,o),
(524,23,cs),
(524,37,o),
(514,50,o),
(501,50,cs),
(82,50,l),
(539,614,ls),
(551,629,o),
(537,650,o),
(517,650,cs),
(135,650,ls),
(122,650,o),
(111,638,o),
(111,626,cs),
(111,613,o),
(122,600,o),
(135,600,cs),
(463,600,l),
(6,36,ls),
(-7,20,o),
(4,0,o),
(25,0,cs)
);
}
);
width = 543;
}
);
metricLeft = N;
metricRight = N;
unicode = 90;
},
{
glyphname = a;
lastChange = "2022-01-30 03:24:13 +0000";
layers = (
{
layerId = m002;
shapes = (
{
closed = 1;
nodes = (
(154,0,o),
(174,5,o),
(187,13,cs),
(212,28,o),
(243,62,o),
(268,97,cs),
(292,130,o),
(309,161,o),
(325,194,cs),
(332,209,o),
(338,224,o),
(341,234,c),
(339,223,o),
(300,7,o),
(300,7,c),
(300,6,ls),
(300,2,o),
(303,0,o),
(307,0,cs),
(310,0,o),
(312,1,o),
(313,5,c),
(374,342,l),
(374,343,l),
(374,347,o),
(370,350,o),
(367,350,cs),
(328,350,ls),
(306,350,o),
(249,351,o),
(223,345,cs),
(191,338,o),
(154,316,o),
(122,279,cs),
(104,258,o),
(90,230,o),
(83,207,cs),
(77,188,o),
(65,144,o),
(65,104,cs),
(65,66,o),
(68,25,o),
(94,9,cs),
(102,4,o),
(115,0,o),
(134,0,cs)
);
},
{
closed = 1;
nodes = (
(78,142,o),
(89,183,o),
(95,202,cs),
(102,223,o),
(114,250,o),
(132,271,cs),
(162,306,o),
(195,325,o),
(225,332,cs),
(251,338,o),
(306,337,o),
(328,337,cs),
(360,337,l),
(348,297,o),
(332,241,o),
(313,199,cs),
(303,177,o),
(280,135,o),
(257,104,cs),
(232,70,o),
(201,36,o),
(182,25,cs),
(169,18,o),
(153,13,o),
(133,13,cs),
(119,13,o),
(107,16,o),
(101,20,cs),
(80,34,o),
(78,69,o),
(78,104,cs)
);
}
);
width = 394;
},
{
layerId = m003;
shapes = (
{
closed = 1;
nodes = (
(119,0,o),
(137,2,o),
(152,10,cs),
(178,24,o),
(189,40,o),
(209,62,cs),
(217,71,o),
(226,83,o),
(232,91,cs),
(236,96,o),
(238,99,o),
(242,105,c),
(241,99,o),
(227,26,o),
(227,26,c),
(226,20,ls),
(225,12,o),
(235,0,o),
(247,0,cs),
(262,0,o),
(273,7,o),
(276,16,c),
(333,341,l),
(333,342,l),
(333,347,o),
(328,350,o),
(322,350,cs),
(285,350,ls),
(263,350,o),
(221,349,o),
(199,345,cs),
(162,338,o),
(125,318,o),
(93,282,cs),
(76,263,o),
(60,232,o),
(53,209,cs),
(47,188,o),
(36,148,o),
(36,104,cs),
(36,71,o),
(46,26,o),
(68,11,cs),
(76,5,o),
(90,0,o),
(104,0,cs)
);
},
{
closed = 1;
nodes = (
(90,150,o),
(98,188,o),
(103,202,cs),
(108,218,o),
(120,236,o),
(132,250,cs),
(155,275,o),
(174,286,o),
(196,293,cs),
(212,298,o),
(239,299,o),
(255,299,cs),
(276,299,l),
(267,269,o),
(260,240,o),
(240,201,cs),
(228,178,o),
(214,152,o),
(199,131,cs),
(180,105,o),
(159,80,o),
(144,66,cs),
(135,58,o),
(126,51,o),
(111,50,cs),
(96,49,o),
(94,55,o),
(91,65,cs),
(87,80,o),
(86,102,o),
(88,128,cs)
);
}
);
width = 365;
}
);
metricLeft = o;
unicode = 97;
},
{
glyphname = b;
lastChange = "2022-01-30 03:25:44 +0000";
layers = (
{
layerId = m002;
shapes = (
{
closed = 1;
nodes = (
(100,-2,o),
(184,3,o),
(213,12,cs),
(241,21,o),
(273,46,o),
(290,72,cs),
(303,92,o),
(314,129,o),
(320,151,cs),
(325,171,o),
(333,221,o),
(333,261,cs),
(333,298,o),
(327,325,o),
(305,340,cs),
(296,347,o),
(283,350,o),
(270,350,cs),
(256,350,o),
(240,346,o),
(226,340,cs),
(201,329,o),
(165,296,o),
(137,262,cs),
(114,233,o),
(101,214,o),
(88,185,cs),
(76,157,l),
(163,643,ls),
(164,647,o),
(161,650,o),
(158,650,cs),
(155,650,o),
(152,647,o),
(151,643,cs),
(36,5,l),
(36,1,o),
(38,0,o),
(42,0,cs)
);
},
{
closed = 1;
nodes = (
(70,107,o),
(89,156,o),
(100,179,cs),
(114,208,o),
(124,225,o),
(147,254,cs),
(173,286,o),
(207,317,o),
(232,328,cs),
(244,334,o),
(258,337,o),
(270,337,cs),
(281,337,o),
(290,335,o),
(297,330,cs),
(315,317,o),
(321,296,o),
(321,261,cs),
(321,223,o),
(313,173,o),
(308,155,cs),
(302,133,o),
(291,98,o),
(278,78,cs),
(263,55,o),
(236,32,o),
(209,24,cs),
(184,16,o),
(116,11,o),
(50,13,c)
);
}
);
width = 358;
},
{
layerId = m003;
shapes = (
{
closed = 1;
nodes = (
(111,0,o),
(193,1,o),
(222,10,cs),
(258,21,o),
(288,44,o),
(307,70,cs),
(327,97,o),
(334,111,o),
(344,145,cs),
(350,165,o),
(357,218,o),
(355,261,cs),
(353,300,o),
(341,324,o),
(319,339,cs),
(310,346,o),
(294,350,o),
(281,350,cs),
(267,350,o),
(249,346,o),
(235,341,cs),
(210,332,o),
(165,297,o),
(145,271,cs),
(142,268,o),
(140,266,o),
(135,259,cs),
(128,250,l),
(194,620,ls),
(197,635,o),
(187,650,o),
(172,650,cs),
(157,650,o),
(147,643,o),
(144,624,cs),
(36,24,l),
(34,12,o),
(45,0,o),
(53,0,cs)
);
},
{
closed = 1;
nodes = (
(106,116,o),
(124,145,o),
(136,167,cs),
(151,196,o),
(160,211,o),
(178,232,cs),
(206,264,o),
(229,285,o),
(254,295,cs),
(259,297,o),
(271,299,o),
(279,299,cs),
(284,299,o),
(289,299,o),
(295,294,cs),
(299,290,o),
(305,280,o),
(305,261,cs),
(305,223,o),
(302,179,o),
(297,161,cs),
(290,137,o),
(282,120,o),
(267,100,cs),
(249,77,o),
(235,68,o),
(209,58,cs),
(192,52,o),
(143,50,o),
(92,50,c)
);
}
);
width = 358;
}
);
metricLeft = n;
unicode = 98;
},
{
glyphname = c;
lastChange = "2022-01-30 03:14:02 +0000";
layers = (
{
layerId = m002;
shapes = (
{
closed = 1;
nodes = (
(151,0,o),
(159,2,o),
(170,6,cs),
(199,17,o),
(236,65,o),
(249,84,cs),
(250,85,o),
(251,87,o),
(251,88,cs),
(251,92,o),
(247,94,o),
(244,94,cs),
(242,94,o),
(240,93,o),
(239,92,cs),
(226,73,o),
(191,28,o),
(164,18,cs),
(154,14,o),
(147,13,o),
(139,13,cs),
(126,13,o),
(116,17,o),
(106,24,cs),
(85,39,o),
(78,68,o),
(78,113,cs),
(78,147,o),
(84,180,o),
(89,196,cs),
(96,218,o),
(107,245,o),
(122,270,cs),
(144,307,o),
(174,325,o),
(197,331,cs),
(215,336,o),
(288,338,o),
(299,338,cs),
(303,338,o),
(305,340,o),
(305,344,cs),
(305,348,o),
(303,350,o),
(299,350,cs),
(288,350,o),
(216,350,o),
(193,343,cs),
(162,334,o),
(135,315,o),
(112,278,cs),
(95,251,o),
(84,222,o),
(77,200,cs),
(71,183,o),
(65,148,o),
(65,113,cs),
(65,65,o),
(74,31,o),
(98,14,cs),
(110,6,o),
(124,0,o),
(139,0,cs)
);
}
);
width = 275;
},
{
layerId = m003;
shapes = (
{
closed = 1;
nodes = (
(130,0,o),
(142,1,o),
(154,6,cs),
(199,21,o),
(254,109,o),
(238,85,c),
(240,90,o),
(241,95,o),
(241,98,cs),
(241,111,o),
(229,122,o),
(216,122,cs),
(207,122,o),
(201,117,o),
(197,113,cs),
(186,97,o),
(157,59,o),
(138,53,cs),
(131,51,o),
(127,50,o),
(122,50,cs),
(113,50,o),
(109,51,o),
(103,55,cs),
(90,65,o),
(86,82,o),
(86,120,cs),
(86,149,o),
(91,176,o),
(95,189,cs),
(101,209,o),
(110,231,o),
(122,253,cs),
(139,281,o),
(156,287,o),
(180,296,cs),
(196,302,o),
(256,301,o),
(266,301,cs),
(279,301,o),
(290,312,o),
(290,325,cs),
(290,339,o),
(279,350,o),
(266,350,cs),
(256,350,o),
(188,351,o),
(164,343,cs),
(133,334,o),
(105,316,o),
(81,279,cs),
(65,253,o),
(54,225,o),
(48,205,cs),
(41,187,o),
(36,153,o),
(36,120,cs),
(36,73,o),
(45,35,o),
(74,15,cs),
(87,7,o),
(104,0,o),
(122,0,cs)
);
}
);
width = 257;
}
);
metricLeft = o;
unicode = 99;
},
{
glyphname = d;
lastChange = "2022-01-30 03:22:35 +0000";
layers = (
{
layerId = m002;
shapes = (
{
closed = 1;
nodes = (
(106,0,o),
(121,7,o),
(135,17,cs),
(158,33,o),
(176,59,o),
(194,86,cs),
(211,111,ls),
(228,135,o),
(252,176,o),
(266,202,cs),
(289,245,l),
(289,245,o),
(267,116,o),
(262,91,cs),
(259,74,o),
(256,38,o),
(271,15,cs),
(278,4,o),
(292,0,o),
(302,0,cs),
(314,0,o),
(330,8,o),
(342,19,cs),
(360,35,o),
(393,76,o),
(412,111,c),
(412,114,ls),
(412,117,o),
(410,121,o),
(406,121,cs),
(404,121,o),
(401,119,o),
(400,117,cs),
(382,84,o),
(352,45,o),
(334,29,cs),
(323,20,o),
(312,13,o),
(302,13,cs),
(295,13,o),
(286,15,o),
(281,23,cs),
(269,42,o),
(272,75,o),
(275,91,cs),
(280,115,o),
(374,644,o),
(374,644,c),
(374,647,o),
(371,650,o),
(367,650,cs),
(364,650,o),
(360,647,o),
(360,644,c),
(306,350,l),
(273,350,ls),
(252,350,o),
(207,350,o),
(186,346,cs),
(151,340,o),
(119,320,o),
(89,278,cs),
(75,258,o),
(57,225,o),
(51,202,cs),
(45,183,o),
(36,141,o),
(36,101,cs),
(36,64,o),
(42,30,o),
(60,12,cs),
(68,4,o),
(80,0,o),
(92,0,cs)
);
},
{
closed = 1;
nodes = (
(48,139,o),
(57,179,o),
(63,198,cs),
(69,219,o),
(86,251,o),
(101,270,cs),
(131,307,o),
(155,328,o),
(188,334,cs),
(209,338,o),
(252,338,o),
(273,338,cs),
(303,338,l),
(303,335,l),
(296,295,o),
(278,247,o),
(254,208,cs),
(239,184,o),
(217,146,o),
(200,119,cs),
(184,94,ls),
(165,64,o),
(148,43,o),
(127,27,cs),
(116,18,o),
(103,13,o),
(92,13,cs),
(82,13,o),
(75,16,o),
(68,22,cs),
(54,36,o),
(48,66,o),
(48,101,cs)
);
}
);
width = 412;
},
{
layerId = m003;
shapes = (
{
closed = 1;
nodes = (
(115,0,o),
(133,2,o),
(147,11,cs),
(173,27,o),
(188,41,o),
(213,77,cs),
(230,102,ls),
(247,126,o),
(248,129,o),
(251,135,cs),
(257,145,l),
(255,139,o),
(252,122,o),
(248,94,cs),
(245,75,o),
(248,33,o),
(267,15,cs),
(275,7,o),
(289,0,o),
(311,0,cs),
(323,0,o),
(343,8,o),
(355,19,cs),
(373,35,o),
(402,66,o),
(430,118,c),
(431,120,ls),
(436,130,o),
(426,149,o),
(408,150,cs),
(397,151,o),
(389,146,o),
(384,138,cs),
(356,92,o),
(340,75,o),
(322,57,cs),
(318,53,o),
(312,50,o),
(308,50,cs),
(303,50,o),
(299,55,o),
(298,63,cs),
(297,74,o),
(297,82,o),
(298,91,cs),
(300,113,o),
(393,628,o),
(393,628,c),
(393,640,o),
(383,650,o),
(368,650,cs),
(357,650,o),
(342,640,o),
(342,628,c),
(292,350,l),
(259,350,ls),
(238,350,o),
(216,350,o),
(195,346,cs),
(160,340,o),
(120,321,o),
(90,279,cs),
(76,259,o),
(53,222,o),
(46,191,cs),
(42,172,o),
(36,142,o),
(36,102,cs),
(36,63,o),
(50,31,o),
(69,12,cs),
(77,4,o),
(89,0,o),
(101,0,cs)
);
},
{
closed = 1;
nodes = (
(85,136,o),
(87,160,o),
(99,193,cs),
(106,213,o),
(114,228,o),
(133,250,cs),
(165,287,o),
(182,293,o),
(197,297,cs),
(208,300,o),
(226,300,o),
(245,300,cs),
(283,300,l),
(282,297,l),
(275,278,o),
(261,239,o),
(248,215,cs),
(236,193,o),
(216,159,o),
(197,131,cs),
(187,116,ls),
(166,85,o),
(150,71,o),
(133,60,cs),
(125,55,o),
(116,49,o),
(108,49,cs),
(102,49,o),
(98,53,o),
(95,56,cs),
(90,61,o),
(85,71,o),
(85,102,cs)
);
}
);
width = 414;
}
);
metricLeft = n;
unicode = 100;
},
{
glyphname = e;
lastChange = "2022-01-30 03:26:11 +0000";
layers = (
{
layerId = m002;
shapes = (
{
closed = 1;
nodes = (
(152,0,o),
(168,4,o),
(181,13,cs),
(221,40,o),
(249,89,o),
(261,111,c),
(261,114,ls),
(261,117,o),
(259,121,o),
(255,121,cs),
(253,121,o),
(250,119,o),
(249,117,cs),
(237,95,o),
(211,50,o),
(173,23,cs),
(163,16,o),
(151,13,o),
(138,13,cs),
(125,13,o),
(114,16,o),
(106,22,cs),
(86,38,o),
(78,76,o),
(78,119,cs),
(78,138,o),
(80,154,o),
(83,168,c),
(205,192,o),
(244,255,o),
(253,298,cs),
(254,303,o),
(255,314,o),
(253,324,cs),
(250,341,o),
(233,350,o),
(214,350,cs),
(209,350,o),
(196,349,o),
(190,347,cs),
(156,337,o),
(135,312,o),
(107,268,cs),
(94,248,o),
(82,220,o),
(76,198,cs),
(71,181,o),
(65,152,o),
(65,119,cs),
(65,74,o),
(75,30,o),
(98,12,cs),
(108,4,o),
(123,0,o),
(138,0,cs)
);
},
{
closed = 1;
nodes = (
(88,194,ls),
(94,216,o),
(106,242,o),
(119,262,cs),
(145,302,o),
(162,325,o),
(194,335,cs),
(199,336,o),
(210,337,o),
(214,337,cs),
(229,337,o),
(238,331,o),
(241,320,cs),
(243,312,o),
(241,302,o),
(240,298,cs),
(231,261,o),
(199,206,o),
(85,182,c)
);
}
);
width = 298;
},
{
layerId = m003;
shapes = (
{
closed = 1;
nodes = (
(131,0,o),
(152,1,o),
(169,13,cs),
(207,40,o),
(230,72,o),
(249,109,c),
(250,113,l),
(254,126,o),
(245,145,o),
(228,145,cs),
(218,145,o),
(210,141,o),
(205,132,cs),
(172,76,o),
(151,59,o),
(137,52,cs),
(133,50,o),
(126,48,o),
(120,48,cs),
(116,48,o),
(109,50,o),
(105,53,cs),
(96,60,o),
(87,78,o),
(86,119,cs),
(86,138,o),
(87,147,o),
(88,153,c),
(199,176,o),
(241,243,o),
(245,291,cs),
(246,303,o),
(245,314,o),
(240,324,cs),
(233,338,o),
(218,348,o),
(195,350,cs),
(182,351,o),
(167,350,o),
(155,346,cs),
(123,335,o),
(107,320,o),
(79,276,cs),
(63,251,o),
(55,229,o),
(47,199,cs),
(41,176,o),
(36,152,o),
(36,119,cs),
(36,80,o),
(48,31,o),
(75,13,cs),
(88,4,o),
(107,0,o),
(119,0,cs)
);
},
{
closed = 1;
nodes = (
(105,215,ls),
(112,230,o),
(119,242,o),
(127,254,cs),
(145,280,o),
(153,291,o),
(173,299,cs),
(178,301,o),
(184,301,o),
(188,301,cs),
(192,301,o),
(197,301,o),
(197,298,cs),
(197,294,o),
(194,286,o),
(192,281,cs),
(184,261,o),
(169,230,o),
(102,208,c)
);
}
);
width = 288;
}
);
metricLeft = o;
metricRight = n;
unicode = 101;
},
{
glyphname = f;
lastChange = "2022-01-30 03:33:18 +0000";
layers = (
{
layerId = m002;
shapes = (
{
closed = 1;
nodes = (
(90,0,o),
(93,2,o),
(94,6,cs),
(142,269,l),
(153,338,l),
(262,338,ls),
(266,338,o),
(268,340,o),
(268,344,cs),
(268,348,o),
(266,350,o),
(262,350,cs),
(156,350,l),
(189,534,ls),
(195,569,o),
(217,602,o),
(230,614,cs),
(245,628,o),
(266,636,o),
(282,636,cs),
(307,636,o),
(332,626,o),
(344,612,cs),
(345,611,o),
(347,610,o),
(349,610,cs),
(353,610,o),
(355,614,o),
(355,617,cs),
(355,619,o),
(355,620,o),
(354,622,c),
(339,637,o),
(309,650,o),
(282,650,cs),
(264,650,o),
(239,638,o),
(222,624,cs),
(207,612,o),
(184,575,o),
(177,536,cs),
(172,514,o),
(142,350,o),
(142,350,c),
(42,350,ls),
(38,350,o),
(36,348,o),
(36,344,cs),
(36,340,o),
(38,338,o),
(42,338,cs),
(140,338,l),
(129,271,l),
(81,7,l),
(81,3,o),
(84,0,o),
(87,0,cs)
);
}
);
width = 235;
},
{
layerId = m003;
shapes = (
{
closed = 1;
nodes = (
(117,0,o),
(129,7,o),
(131,20,cs),
(177,273,l),
(182,300,l),
(268,300,ls),
(282,300,o),
(293,311,o),
(293,325,cs),
(293,339,o),
(282,350,o),
(268,350,cs),
(191,350,l),
(221,519,ls),
(227,551,o),
(244,574,o),
(254,584,cs),
(265,594,o),
(278,599,o),
(290,599,cs),
(310,599,o),
(325,593,o),
(334,584,cs),
(338,579,o),
(345,575,o),
(353,575,cs),
(367,575,o),
(378,588,o),
(378,600,cs),
(378,606,o),
(376,613,o),
(373,617,cs),
(356,635,o),
(322,651,o),
(290,651,cs),
(268,651,o),
(243,640,o),
(221,622,cs),
(200,604,o),
(180,569,o),
(173,528,cs),
(169,514,o),
(144,371,o),
(140,350,c),
(61,350,ls),
(47,350,o),
(36,339,o),
(36,325,cs),
(36,311,o),
(47,300,o),
(61,300,cs),
(131,300,l),
(127,278,l),
(81,27,l),
(80,12,o),
(91,0,o),
(105,0,cs)
);
}
);
width = 235;
}
);
metricLeft = n;
unicode = 102;
},
{
glyphname = g;
lastChange = "2022-01-30 03:15:03 +0000";
layers = (
{
background = {
shapes = (
{
closed = 1;
nodes = (
(245,-300,o),
(268,-151,o),
(350,343,c),
(350,348,o),
(348,350,o),
(344,350,cs),
(341,350,o),
(338,348,o),
(338,345,c),
(255,-148,o),
(234,-287,o),
(117,-287,cs),
(90,-287,o),
(75,-286,o),
(39,-278,c),
(37,-277,l),
(34,-277,o),
(30,-281,o),
(30,-284,cs),
(30,-287,o),
(33,-290,o),
(36,-290,c),
(72,-299,o),
(89,-300,o),
(117,-300,cs)
);
},
{
closed = 1;
nodes = (
(357,463,o),
(360,458,o),
(366,458,cs),
(370,458,o),
(374,462,o),
(374,466,cs),
(374,471,o),
(370,474,o),
(366,474,cs),
(360,474,o),
(357,470,o),
(357,466,cs)
);
}
);
};
layerId = m002;
shapes = (
{
closed = 1;
nodes = (
(250,-300,o),
(271,-129,o),
(350,344,cs),
(351,348,o),
(348,350,o),
(344,350,cs),
(305,350,ls),
(283,350,o),
(251,350,o),
(228,342,cs),
(195,330,o),
(160,306,o),
(130,269,cs),
(114,250,o),
(98,224,o),
(91,201,cs),
(90,198,o),
(85,187,o),
(84,183,cs),
(77,161,o),
(68,134,o),
(66,100,cs),
(65,92,o),
(64,74,o),
(64,66,cs),
(64,42,o),
(69,22,o),
(85,10,cs),
(93,4,o),
(102,0,o),
(112,0,cs),
(125,0,o),
(140,6,o),
(153,14,cs),
(174,27,o),
(196,52,o),
(225,88,cs),
(248,117,o),
(271,158,o),
(290,189,cs),
(298,203,o),
(310,218,o),
(318,238,c),
(253,-128,o),
(231,-286,o),
(121,-286,cs),
(95,-286,o),
(74,-286,o),
(38,-278,c),
(36,-278,ls),
(32,-278,o),
(30,-280,o),
(30,-284,cs),
(30,-287,o),
(32,-290,o),
(35,-290,c),
(71,-299,o),
(94,-300,o),
(121,-300,cs)
);
},
{
closed = 1;
nodes = (
(78,100,ls),
(79,131,o),
(89,157,o),
(96,178,cs),
(98,183,o),
(102,194,o),
(103,197,cs),
(110,218,o),
(124,242,o),
(140,261,cs),
(168,296,o),
(201,318,o),
(232,330,cs),
(253,338,o),
(283,338,o),
(305,338,cs),
(336,338,l),
(322,271,o),
(296,225,o),
(278,195,cs),
(260,164,o),
(238,125,o),
(215,96,cs),
(186,60,o),
(166,37,o),
(147,26,cs),
(134,18,o),
(122,14,o),
(112,14,cs),
(104,14,o),
(99,15,o),
(93,20,cs),
(81,30,o),
(76,44,o),
(77,66,cs)
);
}
);
width = 387;
},
{
layerId = m003;
shapes = (
{
closed = 1;
nodes = (
(219,-300,o),
(275,-199,o),
(350,323,cs),
(352,337,o),
(342,350,o),
(326,350,cs),
(295,350,ls),
(273,350,o),
(233,348,o),
(210,341,cs),
(175,330,o),
(138,305,o),
(112,273,cs),
(97,254,o),
(83,234,o),
(73,212,cs),
(69,203,o),
(63,191,o),
(59,180,cs),
(51,159,o),
(43,134,o),
(39,104,cs),
(38,96,o),
(37,87,o),
(37,76,cs),
(37,50,o),
(46,26,o),
(62,12,cs),
(72,3,o),
(88,0,o),
(101,0,cs),
(118,0,o),
(139,4,o),
(156,13,cs),
(177,24,o),
(204,41,o),
(231,74,cs),
(240,85,o),
(250,100,o),
(256,110,cs),
(259,115,o),
(266,126,o),
(270,133,c),
(207,-266,o),
(128,-251,o),
(90,-251,cs),
(74,-251,o),
(42,-243,o),
(6,-235,c),
(4,-235,ls),
(-7,-235,o),
(-20,-245,o),
(-21,-256,cs),
(-22,-271,o),
(-15,-281,o),
(-5,-284,c),
(31,-293,o),
(63,-300,o),
(90,-300,cs)
);
},
{
closed = 1;
nodes = (
(89,96,ls),
(91,114,o),
(99,143,o),
(114,179,cs),
(116,184,o),
(118,189,o),
(121,194,cs),
(131,213,o),
(136,222,o),
(150,239,cs),
(174,268,o),
(192,283,o),
(225,293,cs),
(242,298,o),
(280,299,o),
(290,299,cs),
(296,299,l),
(287,262,o),
(269,229,o),
(255,204,cs),
(234,167,o),
(211,129,o),
(193,106,cs),
(165,70,o),
(148,61,o),
(139,56,cs),
(131,52,o),
(121,49,o),
(111,49,cs),
(102,49,o),
(96,50,o),
(92,55,cs),
(87,61,o),
(87,72,o),
(88,85,cs)
);
}
);
width = 387;
}
);
metricRight = n;
unicode = 103;
},
{
glyphname = h;
lastChange = "2022-01-30 03:27:34 +0000";
layers = (
{
layerId = m002;
shapes = (
{
closed = 1;
nodes = (
(45,0,o),
(48,2,o),
(49,6,cs),
(62,77,l),
(94,133,o),
(125,174,o),
(143,202,cs),
(165,236,o),
(203,295,o),
(231,319,cs),
(245,331,o),
(266,338,o),
(287,338,cs),
(295,338,o),
(304,333,o),
(309,326,cs),
(314,319,o),
(314,305,o),
(314,294,cs),
(314,290,o),
(313,280,o),
(311,266,cs),
(307,230,o),
(265,7,o),
(265,7,c),
(265,6,ls),
(265,2,o),
(267,0,o),
(271,0,cs),
(274,0,o),
(276,1,o),
(277,5,c),
(277,5,o),
(320,229,o),
(324,264,cs),
(326,278,o),
(328,290,o),
(328,294,cs),
(328,307,o),
(327,322,o),
(321,332,cs),
(314,344,o),
(298,350,o),
(287,350,cs),
(264,350,o),
(239,342,o),
(223,329,cs),
(193,305,o),
(155,244,o),
(133,210,cs),
(118,187,o),
(93,153,o),
(67,111,c),
(162,641,l),
(162,643,ls),
(162,646,o),
(160,650,o),
(156,650,cs),
(153,650,o),
(151,647,o),
(150,644,c),
(36,7,l),
(36,6,ls),
(36,2,o),
(38,0,o),
(42,0,cs)
);
}
);
width = 365;
},
{
layerId = m003;
shapes = (
{
closed = 1;
nodes = (
(73,0,o),
(82,3,o),
(85,22,cs),
(96,84,l),
(114,113,o),
(132,140,o),
(163,186,cs),
(188,223,o),
(213,250,o),
(238,275,cs),
(251,288,o),
(271,300,o),
(285,300,cs),
(293,300,o),
(297,297,o),
(299,293,cs),
(301,288,o),
(300,275,o),
(298,263,cs),
(297,256,o),
(296,252,o),
(293,234,cs),
(286,192,o),
(253,26,o),
(253,26,c),
(253,25,ls),
(253,8,o),
(262,0,o),
(277,0,cs),
(289,0,o),
(298,6,o),
(301,18,c),
(301,18,o),
(342,224,o),
(348,264,cs),
(350,278,o),
(350,291,o),
(350,298,cs),
(350,311,o),
(347,322,o),
(335,334,cs),
(322,347,o),
(309,349,o),
(297,350,cs),
(273,352,o),
(248,345,o),
(228,331,cs),
(196,308,o),
(163,273,o),
(141,241,cs),
(139,238,o),
(125,217,o),
(118,206,c),
(192,614,l),
(193,619,ls),
(196,633,o),
(187,650,o),
(170,650,cs),
(155,650,o),
(148,644,o),
(144,626,c),
(36,26,l),
(36,22,ls),
(36,10,o),
(44,0,o),
(58,0,cs)
);
}
);
width = 387;
}
);
metricLeft = n;
metricRight = n;
unicode = 104;
},
{
glyphname = i;
lastChange = "2022-01-30 03:27:42 +0000";
layers = (
{
layerId = m002;
shapes = (
{
closed = 1;
nodes = (
(74,0,o),
(77,2,o),
(77,5,c),
(139,344,ls),
(140,349,o),
(136,351,o),
(133,351,cs),
(130,351,o),
(127,349,o),
(126,346,c),
(65,7,l),
(65,6,ls),
(65,2,o),
(67,0,o),
(71,0,cs)
);
},
{
closed = 1;
nodes = (
(144,463,o),
(147,459,o),
(152,459,cs),
(157,459,o),
(161,462,o),
(161,466,cs),
(161,471,o),
(157,474,o),
(152,474,cs),
(147,474,o),
(144,470,o),
(144,466,cs)
);
}
);
width = 183;
},
{
layerId = m003;
shapes = (
{
closed = 1;
nodes = (
(74,0,o),
(84,8,o),
(86,19,cs),
(141,323,ls),
(144,340,o),
(135,350,o),
(117,350,cs),
(103,350,o),
(94,345,o),
(92,332,cs),
(37,30,l),
(36,25,l),
(34,12,o),
(38,0,o),
(61,0,cs)
);
},
{
closed = 1;
nodes = (
(156,441,o),
(169,453,o),
(169,467,cs),
(169,482,o),
(156,494,o),
(141,494,cs),
(126,494,o),
(114,481,o),
(114,467,cs),
(114,454,o),
(126,441,o),
(141,441,cs)
);
}
);
width = 172;
}
);
metricLeft = o;
unicode = 105;
},
{
glyphname = j;
lastChange = "2022-01-30 03:28:13 +0000";
layers = (
{
layerId = m002;
shapes = (
{
closed = 1;
nodes = (
(65,-300,o),
(88,-151,o),
(170,343,c),
(170,348,o),
(168,350,o),
(164,350,cs),
(161,350,o),
(158,348,o),
(158,345,c),
(75,-148,o),
(54,-287,o),
(-63,-287,cs),
(-90,-287,o),
(-105,-286,o),
(-141,-278,c),
(-143,-277,l),
(-146,-277,o),
(-150,-281,o),
(-150,-284,cs),
(-150,-287,o),
(-147,-290,o),
(-144,-290,c),
(-108,-299,o),
(-91,-300,o),
(-63,-300,cs)
);
},
{
closed = 1;
nodes = (
(177,463,o),
(180,458,o),
(186,458,cs),
(190,458,o),
(194,462,o),
(194,466,cs),
(194,471,o),
(190,474,o),
(186,474,cs),
(180,474,o),
(177,470,o),
(177,466,cs)
);
}
);
width = 231;
},
{
layerId = m003;
shapes = (
{
closed = 1;
nodes = (
(61,-272,o),
(80,-288,o),
(186,326,c),
(186,343,o),
(178,350,o),
(161,350,cs),
(149,350,o),
(139,345,o),
(136,330,cs),
(43,-160,o),
(38,-250,o),
(-58,-250,cs),
(-85,-250,o),
(-103,-250,o),
(-124,-243,cs),
(-127,-242,ls),
(-136,-239,o),
(-153,-249,o),
(-155,-263,cs),
(-157,-278,o),
(-145,-288,o),
(-139,-290,cs),
(-103,-301,o),
(-46,-300,o),
(-46,-300,c)
);
},
{
closed = 1;
nodes = (
(161,454,o),
(169,441,o),
(189,441,cs),
(202,441,o),
(211,454,o),
(211,464,cs),
(211,478,o),
(202,491,o),
(186,491,cs),
(169,491,o),
(161,478,o),
(161,464,cs)
);
}
);
width = 248;
}
);
metricRight = n;
unicode = 106;
},
{
glyphname = k;
lastChange = "2022-01-30 03:28:26 +0000";
layers = (
{
layerId = m002;
shapes = (
{
closed = 1;
nodes = (
(45,0,o),
(49,2,o),
(49,5,c),
(63,76,l),
(98,138,o),
(121,181,o),
(140,208,cs),
(163,240,o),
(190,282,o),
(219,308,cs),
(237,326,o),
(251,343,o),
(279,338,cs),
(290,336,o),
(295,321,o),
(297,302,cs),
(298,289,o),
(295,269,o),
(292,260,cs),
(268,194,o),
(203,181,o),
(189,170,cs),
(187,168,o),
(187,165,o),
(190,162,c),
(204,154,o),
(236,140,o),
(260,108,cs),
(271,93,o),
(281,79,o),
(289,66,cs),
(306,40,o),
(320,8,o),
(340,0,c),
(343,0,ls),
(347,0,o),
(349,2,o),
(349,6,cs),
(349,9,o),
(348,11,o),
(345,12,cs),
(329,19,o),
(317,46,o),
(300,73,cs),
(291,86,o),
(282,100,o),
(270,116,cs),
(248,146,o),
(219,160,o),
(205,167,c),
(222,173,o),
(283,197,o),
(304,256,cs),
(308,266,o),
(312,288,o),
(311,302,cs),
(309,324,o),
(300,348,o),
(279,350,cs),
(249,353,o),
(229,336,o),
(209,318,cs),
(180,290,o),
(153,248,o),
(130,216,cs),
(113,192,o),
(93,158,o),
(69,112,c),
(163,642,ls),
(164,646,o),
(160,650,o),
(157,650,cs),
(154,650,o),
(151,647,o),
(150,644,c),
(36,7,l),
(36,6,ls),
(36,2,o),
(38,0,o),
(42,0,cs)
);
}
);
width = 384;
},
{
layerId = m003;
shapes = (
{
closed = 1;
nodes = (
(76,0,o),
(85,6,o),
(87,16,c),
(100,83,l),
(135,145,o),
(154,181,o),
(173,208,cs),
(198,244,o),
(215,260,o),
(239,282,cs),
(253,295,o),
(276,305,o),
(281,301,cs),
(285,298,o),
(287,291,o),
(287,285,cs),
(287,279,o),
(285,269,o),
(282,260,cs),
(267,216,o),
(206,204,o),
(188,185,cs),
(178,175,o),
(177,160,o),
(189,151,c),
(228,127,o),
(246,118,o),
(258,102,cs),
(270,87,o),
(283,64,o),
(291,50,cs),
(298,38,o),
(318,4,o),
(342,0,c),
(346,0,ls),
(363,0,o),
(371,12,o),
(372,19,cs),
(373,26,o),
(369,37,o),
(361,44,cs),
(352,52,o),
(341,66,o),
(330,84,cs),
(322,98,o),
(314,110,o),
(299,130,cs),
(284,150,o),
(262,164,o),
(256,167,c),
(270,176,o),
(320,204,o),
(330,245,cs),
(338,276,o),
(337,289,o),
(333,308,cs),
(328,333,o),
(314,350,o),
(291,350,cs),
(263,350,o),
(243,344,o),
(216,325,cs),
(189,306,o),
(175,292,o),
(155,267,cs),
(135,242,o),
(128,231,o),
(123,224,c),
(195,621,ls),
(198,637,o),
(187,650,o),
(169,650,cs),
(154,650,o),
(147,637,o),
(146,631,c),
(37,31,l),
(36,26,ls),
(34,14,o),
(44,0,o),
(56,0,cs)
);
}
);
width = 407;
}
);
metricLeft = n;
metricRight = o;
unicode = 107;
},
{
glyphname = l;
lastChange = "2022-01-30 03:28:33 +0000";
layers = (
{
layerId = m002;
shapes = (
{
closed = 1;
nodes = (
(74,0,o),
(77,2,o),
(78,5,c),
(193,643,l),
(194,646,o),
(189,650,o),
(186,650,cs),
(183,650,o),
(180,647,o),
(179,644,c),
(65,7,l),
(65,6,ls),
(65,2,o),
(67,0,o),
(71,0,cs)
);
}
);
width = 215;
},
{
layerId = m003;
shapes = (
{
closed = 1;
nodes = (
(76,0,o),
(87,6,o),
(90,18,cs),
(199,622,ls),
(202,638,o),
(196,650,o),
(172,650,cs),
(156,650,o),
(150,642,o),
(148,632,cs),
(38,27,l),
(37,22,l),
(34,13,o),
(41,0,o),
(64,0,cs)
);
}
);
width = 206;
}
);
metricLeft = o;
unicode = 108;
},
{
glyphname = m;
lastChange = "2022-01-30 03:28:41 +0000";
layers = (
{
layerId = m002;
shapes = (
{
closed = 1;
nodes = (
(45,0,o),
(48,3,o),
(49,6,c),
(61,76,l),
(91,132,o),
(112,170,o),
(128,197,cs),
(144,224,ls),
(160,251,o),
(186,296,o),
(210,317,cs),
(224,329,o),
(236,338,o),
(256,338,cs),
(266,338,o),
(279,335,o),
(285,328,cs),
(292,320,o),
(296,304,o),
(296,291,cs),
(296,269,o),
(278,165,o),
(267,106,cs),
(250,7,l),
(250,2,o),
(254,0,o),
(257,0,cs),
(260,0,o),
(262,3,o),
(263,6,c),
(276,80,l),
(278,83,o),
(327,165,o),
(343,189,cs),
(353,204,ls),
(375,237,o),
(405,288,o),
(437,317,cs),
(452,332,o),
(468,338,o),
(488,338,cs),
(495,338,o),
(507,333,o),
(511,324,cs),
(517,314,o),
(517,296,o),
(517,283,cs),
(517,257,o),
(503,161,o),
(494,107,cs),
(490,85,o),
(479,27,o),
(476,7,cs),
(475,2,o),
(478,0,o),
(482,0,cs),
(485,0,o),
(488,3,o),
(489,6,c),
(506,105,ls),
(515,158,o),
(530,256,o),
(530,283,cs),
(530,298,o),
(529,318,o),
(523,330,cs),
(517,341,o),
(502,350,o),
(488,350,cs),
(464,350,o),
(444,342,o),
(427,327,cs),
(397,298,o),
(365,244,o),
(343,212,cs),
(332,196,ls),
(319,177,o),
(304,154,o),
(282,116,c),
(293,174,o),
(308,270,o),
(308,291,cs),
(308,306,o),
(303,327,o),
(295,336,cs),
(287,345,o),
(270,350,o),
(256,350,cs),
(232,350,o),
(216,339,o),
(202,327,cs),
(176,305,o),
(149,259,o),
(133,231,cs),
(118,205,ls),
(103,180,o),
(89,154,o),
(68,114,c),
(109,343,l),
(109,344,ls),
(109,348,o),
(107,350,o),
(103,350,cs),
(100,350,o),
(98,348,o),
(97,345,c),
(36,7,l),
(36,6,ls),
(36,2,o),
(38,0,o),
(42,0,cs)
);
}
);
width = 567;
},
{
layerId = m003;
shapes = (
{
closed = 1;
nodes = (
(74,0,o),
(82,7,o),
(84,17,c),
(96,80,l),
(127,136,o),
(136,152,o),
(152,180,cs),
(170,211,ls),
(187,240,o),
(192,251,o),
(214,277,cs),
(226,292,o),
(235,298,o),
(248,300,cs),
(256,301,o),
(263,300,o),
(266,297,cs),
(269,294,o),
(270,290,o),
(270,285,cs),
(270,263,o),
(254,167,o),
(243,107,cs),
(228,23,l),
(228,13,o),
(233,0,o),
(251,0,cs),
(269,0,o),
(277,10,o),
(278,18,c),
(288,78,l),
(290,83,o),
(333,155,o),
(349,179,cs),
(359,194,ls),
(384,231,o),
(393,247,o),
(418,277,cs),
(436,298,o),
(446,300,o),
(455,300,cs),
(461,300,o),
(464,300,o),
(466,296,cs),
(468,291,o),
(470,280,o),
(469,267,cs),
(465,227,o),
(458,173,o),
(448,120,cs),
(443,93,o),
(435,45,o),
(431,22,cs),
(430,16,o),
(432,0,o),
(455,0,cs),
(469,0,o),
(479,8,o),
(480,16,c),
(496,105,ls),
(506,158,o),
(519,253,o),
(519,280,cs),
(519,300,o),
(515,316,o),
(506,329,cs),
(498,340,o),
(481,350,o),
(460,350,cs),
(429,350,o),
(419,344,o),
(403,333,cs),
(383,320,o),
(343,260,o),
(335,248,cs),
(330,241,ls),
(324,232,o),
(318,222,o),
(311,212,c),
(317,251,o),
(321,265,o),
(319,292,cs),
(318,307,o),
(308,332,o),
(292,340,cs),
(281,346,o),
(263,350,o),
(250,350,cs),
(225,350,o),
(212,343,o),
(194,327,cs),
(169,305,o),
(155,282,o),
(150,274,cs),
(142,262,ls),
(137,255,o),
(130,243,o),
(122,229,c),
(140,328,l),
(140,333,ls),
(140,344,o),
(128,352,o),
(118,352,cs),
(102,352,o),
(94,341,o),
(92,333,c),
(37,27,l),
(36,20,ls),
(35,13,o),
(42,0,o),
(58,0,cs)
);
}
);
width = 556;
}
);
metricLeft = n;
metricRight = n;
unicode = 109;
},
{
glyphname = n;
lastChange = "2022-01-30 03:28:50 +0000";
layers = (
{
layerId = m002;
shapes = (
{
closed = 1;
nodes = (
(45,0,o),
(47,1,o),
(48,5,c),
(60,72,l),
(92,128,o),
(120,175,o),
(141,208,cs),
(174,259,o),
(217,299,o),
(247,318,cs),
(261,327,o),
(281,340,o),
(304,338,cs),
(318,337,o),
(324,333,o),
(331,326,cs),
(342,315,o),
(345,300,o),
(343,287,cs),
(342,281,o),
(328,204,o),
(326,194,cs),
(308,94,ls),
(307,89,o),
(298,39,o),
(297,34,cs),
(296,28,o),
(293,12,o),
(292,6,c),
(291,1,o),
(295,0,o),
(298,0,cs),
(301,0,o),
(304,1,o),
(305,5,c),
(306,11,o),
(309,28,o),
(310,34,cs),
(321,94,l),
(339,193,ls),
(341,205,o),
(355,282,o),
(356,287,cs),
(358,304,o),
(354,321,o),
(341,334,cs),
(332,343,o),
(322,349,o),
(304,350,cs),
(279,351,o),
(255,339,o),
(240,329,cs),
(208,308,o),
(165,267,o),
(131,216,cs),
(115,191,o),
(87,144,o),
(66,108,c),
(109,343,l),
(109,344,ls),
(109,348,o),
(107,350,o),
(103,350,cs),
(100,350,o),
(97,348,o),
(97,345,c),
(36,7,l),
(36,6,ls),
(36,2,o),
(38,0,o),
(42,0,cs)
);
}
);
width = 393;
},
{
layerId = m003;
shapes = (
{
closed = 1;
nodes = (
(74,0,o),
(83,8,o),
(86,22,c),
(96,76,l),
(129,135,o),
(153,175,o),
(162,188,cs),
(185,221,o),
(225,268,o),
(256,287,cs),
(271,296,o),
(281,299,o),
(291,300,cs),
(299,301,o),
(305,300,o),
(308,297,cs),
(312,293,o),
(313,286,o),
(313,280,cs),
(313,270,o),
(309,234,o),
(304,192,cs),
(293,104,ls),
(291,89,o),
(287,60,o),
(284,38,cs),
(282,27,o),
(282,24,o),
(282,22,c),
(282,6,o),
(295,0,o),
(305,0,cs),
(320,0,o),
(327,4,o),
(330,16,c),
(331,20,o),
(332,25,o),
(334,36,cs),
(342,94,l),
(354,192,ls),
(359,234,o),
(363,268,o),
(363,279,cs),
(363,296,o),
(358,316,o),
(345,332,cs),
(335,344,o),
(321,350,o),
(308,350,cs),
(277,350,o),
(258,344,o),
(239,335,cs),
(205,319,o),
(156,262,o),
(132,231,cs),
(127,225,o),
(124,221,o),
(120,215,c),
(140,323,l),
(140,326,ls),
(140,341,o),
(132,350,o),
(116,350,cs),
(104,350,o),
(93,343,o),
(91,331,c),
(37,33,l),
(36,27,ls),
(34,18,o),
(39,0,o),
(61,0,cs)
);
}
);
width = 400;
}
);
unicode = 110;
},
{
glyphname = o;
lastChange = "2022-01-30 03:29:00 +0000";
layers = (
{
layerId = m002;
shapes = (
{
closed = 1;
nodes = (
(152,0,o),
(167,6,o),
(177,14,cs),
(237,58,o),
(291,170,o),
(289,250,cs),
(289,265,o),
(285,285,o),
(281,298,cs),
(276,314,o),
(263,335,o),
(246,343,cs),
(235,348,o),
(223,350,o),
(213,350,cs),
(201,350,o),
(187,347,o),
(175,343,cs),
(142,330,o),
(127,309,o),
(102,267,cs),
(89,246,o),
(80,215,o),
(74,193,cs),
(69,176,o),
(63,139,o),
(65,105,cs),
(68,52,o),
(76,35,o),
(98,17,cs),
(109,8,o),
(125,0,o),
(140,0,cs)
);
},
{
closed = 1;
nodes = (
(76,137,o),
(82,174,o),
(86,189,cs),
(92,211,o),
(102,239,o),
(114,259,cs),
(138,301,o),
(150,318,o),
(181,331,cs),
(190,335,o),
(202,337,o),
(213,337,cs),
(222,337,o),
(231,335,o),
(240,331,cs),
(255,325,o),
(264,308,o),
(269,293,cs),
(272,282,o),
(276,264,o),
(276,250,cs),
(278,174,o),
(226,66,o),
(169,24,cs),
(161,18,o),
(151,13,o),
(140,13,cs),
(127,13,o),
(116,19,o),
(106,27,cs),
(86,44,o),
(81,57,o),
(78,105,cs)
);
}
);
width = 324;
},
{
layerId = m003;
shapes = (
{
closed = 1;
nodes = (
(138,0,o),
(149,5,o),
(159,11,cs),
(215,45,o),
(275,150,o),
(274,247,cs),
(274,262,o),
(270,283,o),
(265,296,cs),
(256,318,o),
(241,336,o),
(224,343,cs),
(215,347,o),
(203,350,o),
(191,350,cs),
(178,350,o),
(164,350,o),
(152,346,cs),
(113,334,o),
(97,313,o),
(73,270,cs),
(60,247,o),
(50,217,o),
(44,195,cs),
(39,178,o),
(34,139,o),
(36,105,cs),
(39,52,o),
(60,30,o),
(75,16,cs),
(86,6,o),
(100,0,o),
(118,0,cs)
);
},
{
closed = 1;
nodes = (
(86,149,o),
(89,168,o),
(93,183,cs),
(99,205,o),
(107,227,o),
(118,247,cs),
(136,279,o),
(146,290,o),
(164,296,cs),
(174,299,o),
(181,300,o),
(189,300,cs),
(194,300,o),
(200,298,o),
(205,295,cs),
(208,293,o),
(214,288,o),
(217,282,cs),
(220,276,o),
(224,261,o),
(224,247,cs),
(223,169,o),
(187,104,o),
(146,62,cs),
(138,54,o),
(130,50,o),
(119,50,cs),
(107,50,o),
(99,59,o),
(94,67,c),
(89,75,o),
(86,85,o),
(86,117,cs)
);
}
);
width = 309;
}
);
unicode = 111;
},
{
glyphname = p;
lastChange = "2022-01-30 03:29:12 +0000";
layers = (
{
layerId = m002;
shapes = (
{
closed = 1;
nodes = (
(10,-300,o),
(13,-298,o),
(13,-295,c),
(78,70,l),
(111,39,o),
(140,10,o),
(188,10,cs),
(235,10,o),
(268,28,o),
(295,65,cs),
(321,100,o),
(334,147,o),
(346,216,cs),
(348,228,o),
(349,248,o),
(349,261,cs),
(349,283,o),
(346,302,o),
(342,312,cs),
(335,329,o),
(322,350,o),
(296,350,cs),
(264,350,o),
(214,300,o),
(171,247,cs),
(146,216,o),
(118,171,o),
(87,119,c),
(107,229,o),
(125,331,o),
(127,343,cs),
(128,347,o),
(125,350,o),
(121,350,cs),
(118,350,o),
(115,348,o),
(115,345,c),
(109,316,o),
(4,-272,o),
(0,-293,cs),
(-1,-298,o),
(3,-300,o),
(7,-300,cs)
);
},
{
closed = 1;
nodes = (
(121,150,o),
(152,203,o),
(181,239,cs),
(223,290,o),
(269,337,o),
(296,337,cs),
(314,337,o),
(324,322,o),
(330,308,cs),
(333,299,o),
(336,282,o),
(336,261,cs),
(336,248,o),
(335,228,o),
(333,217,cs),
(323,150,o),
(309,106,o),
(285,73,cs),
(260,38,o),
(231,23,o),
(188,23,cs),
(143,23,o),
(119,50,o),
(83,84,c)
);
}
);
width = 384;
},
{
layerId = m003;
shapes = (
{
closed = 1;
nodes = (
(75,-300,o),
(83,-292,o),
(85,-281,c),
(143,31,l),
(155,23,o),
(193,0,o),
(235,0,cs),
(287,0,o),
(322,22,o),
(350,60,cs),
(379,100,o),
(388,136,o),
(399,189,cs),
(405,217,o),
(405,249,o),
(404,262,cs),
(402,288,o),
(397,302,o),
(392,313,cs),
(385,329,o),
(365,350,o),
(341,350,cs),
(297,350,o),
(251,303,o),
(209,253,cs),
(199,241,o),
(192,232,o),
(175,209,c),
(181,241,o),
(187,273,o),
(195,320,cs),
(198,336,o),
(187,350,o),
(171,350,cs),
(159,350,o),
(148,342,o),
(146,330,c),
(139,285,o),
(40,-253,o),
(36,-274,cs),
(34,-286,o),
(46,-300,o),
(56,-300,cs)
);
},
{
closed = 1;
nodes = (
(190,151,o),
(220,188,o),
(250,224,cs),
(307,291,o),
(329,300,o),
(337,300,cs),
(343,300,o),
(346,295,o),
(348,290,cs),
(351,280,o),
(353,273,o),
(354,252,cs),
(355,232,o),
(353,207,o),
(350,194,cs),
(344,166,o),
(332,121,o),
(306,85,cs),
(287,59,o),
(265,50,o),
(237,50,cs),
(205,50,o),
(181,65,o),
(152,85,c)
);
}
);
width = 439;
}
);
metricRight = o;
unicode = 112;
},
{
glyphname = q;
lastChange = "2022-01-30 03:18:25 +0000";
layers = (
{
layerId = m002;
shapes = (
{
closed = 1;
nodes = (
(228,-301,o),
(231,-299,o),
(233,-295,cs),
(266,-235,o),
(312,-179,o),
(347,-144,c),
(348,-142,o),
(348,-141,o),
(348,-139,cs),
(348,-136,o),
(346,-132,o),
(342,-132,cs),
(340,-132,o),
(338,-133,o),
(337,-134,cs),
(307,-165,o),
(268,-212,o),
(237,-262,c),
(346,342,l),
(346,343,ls),
(346,347,o),
(341,350,o),
(337,350,cs),
(303,350,ls),
(281,350,o),
(236,350,o),
(213,348,cs),
(167,344,o),
(132,320,o),
(107,285,cs),
(92,265,o),
(84,229,o),
(79,207,cs),
(72,176,o),
(65,140,o),
(65,107,cs),
(65,71,o),
(67,28,o),
(88,10,cs),
(95,4,o),
(105,0,o),
(114,0,cs),
(131,0,o),
(150,11,o),
(165,23,cs),
(189,42,o),
(219,88,o),
(243,125,cs),
(276,178,o),
(302,228,o),
(319,265,c),
(220,-290,ls),
(219,-294,o),
(220,-299,o),
(223,-300,cs)
);
},
{
closed = 1;
nodes = (
(77,139,o),
(84,174,o),
(91,204,cs),
(96,226,o),
(104,259,o),
(117,277,cs),
(141,310,o),
(171,332,o),
(215,336,cs),
(236,338,o),
(281,338,o),
(303,338,cs),
(329,338,l),
(317,293,o),
(285,216,o),
(231,131,cs),
(209,96,o),
(179,50,o),
(157,33,cs),
(143,22,o),
(128,13,o),
(114,13,cs),
(107,13,o),
(101,15,o),
(96,20,cs),
(80,34,o),
(77,71,o),
(77,107,cs)
);
}
);
width = 383;
},
{
layerId = m003;
shapes = (
{
closed = 1;
nodes = (
(208,-301,o),
(224,-298,o),
(229,-289,cs),
(258,-234,o),
(297,-184,o),
(336,-147,c),
(339,-143,o),
(341,-138,o),
(341,-130,cs),
(341,-118,o),
(331,-104,o),
(318,-104,cs),
(312,-104,o),
(307,-105,o),
(304,-108,cs),
(276,-137,o),
(260,-154,o),
(252,-164,c),
(338,317,l),
(339,323,ls),
(341,335,o),
(328,350,o),
(312,350,cs),
(280,350,ls),
(259,350,o),
(216,350,o),
(195,349,cs),
(144,346,o),
(107,320,o),
(80,282,cs),
(62,256,o),
(57,233,o),
(49,202,cs),
(39,163,o),
(36,137,o),
(36,99,cs),
(36,65,o),
(46,27,o),
(73,8,cs),
(80,3,o),
(91,0,o),
(101,0,cs),
(115,0,o),
(137,9,o),
(154,21,cs),
(176,37,o),
(221,83,o),
(235,103,cs),
(246,119,o),
(252,128,o),
(255,135,c),
(182,-273,ls),
(179,-287,o),
(189,-298,o),
(200,-300,cs)
);
},
{
closed = 1;
nodes = (
(86,138,o),
(90,158,o),
(98,190,cs),
(103,211,o),
(110,237,o),
(121,253,cs),
(137,277,o),
(165,297,o),
(197,299,cs),
(216,300,o),
(249,300,o),
(270,300,cs),
(284,300,l),
(271,264,o),
(219,170,o),
(191,128,cs),
(167,91,o),
(137,69,o),
(127,61,cs),
(119,55,o),
(111,50,o),
(104,50,cs),
(101,50,o),
(95,53,o),
(93,58,c),
(90,66,o),
(86,79,o),
(86,102,cs)
);
}
);
width = 376;
}
);
metricLeft = o;
metricRight = o;
unicode = 113;
},
{
glyphname = r;
lastChange = "2022-01-30 03:29:27 +0000";
layers = (
{
layerId = m002;
shapes = (
{
closed = 1;
nodes = (
(45,0,o),
(49,3,o),
(49,6,c),
(62,80,l),
(94,145,o),
(116,179,o),
(138,206,cs),
(161,234,o),
(216,296,o),
(248,319,cs),
(262,329,o),
(281,338,o),
(295,338,cs),
(304,338,o),
(311,333,o),
(317,325,cs),
(321,320,o),
(322,312,o),
(322,301,cs),
(322,294,o),
(321,288,o),
(321,280,cs),
(321,279,ls),
(321,276,o),
(323,272,o),
(327,272,cs),
(330,272,o),
(333,275,o),
(333,278,c),
(335,286,o),
(335,294,o),
(335,301,cs),
(335,314,o),
(333,325,o),
(327,333,cs),
(319,343,o),
(308,350,o),
(295,350,cs),
(279,350,o),
(256,341,o),
(240,329,cs),
(208,306,o),
(151,244,o),
(128,214,cs),
(110,192,o),
(93,166,o),
(70,123,c),
(109,344,ls),
(110,348,o),
(107,350,o),
(103,350,cs),
(100,350,o),
(96,348,o),
(96,345,c),
(36,6,l),
(35,3,o),
(38,0,o),
(42,0,cs)
);
}
);
width = 335;
},
{
layerId = m003;
shapes = (
{
closed = 1;
nodes = (
(73,0,o),
(85,6,o),
(87,21,c),
(97,83,l),
(129,148,o),
(146,170,o),
(168,197,cs),
(191,225,o),
(227,267,o),
(263,293,cs),
(267,296,o),
(272,299,o),
(278,300,cs),
(281,301,o),
(285,301,o),
(288,300,cs),
(292,298,o),
(293,297,o),
(294,293,cs),
(295,288,o),
(293,284,o),
(293,273,cs),
(293,269,ls),
(293,258,o),
(302,243,o),
(319,243,cs),
(334,243,o),
(342,258,o),
(343,272,c),
(345,286,o),
(344,293,o),
(343,300,cs),
(341,313,o),
(337,322,o),
(331,330,cs),
(320,343,o),
(309,350,o),
(292,350,cs),
(271,350,o),
(254,346,o),
(236,334,cs),
(204,313,o),
(157,263,o),
(134,234,cs),
(130,229,o),
(125,223,o),
(122,219,c),
(140,323,ls),
(143,339,o),
(130,350,o),
(118,350,cs),
(103,350,o),
(92,343,o),
(91,331,c),
(37,27,l),
(34,13,o),
(44,0,o),
(60,0,cs)
);
}
);
width = 379;
}
);
metricLeft = n;
unicode = 114;
},
{
glyphname = s;
lastChange = "2022-01-30 03:29:33 +0000";
layers = (
{
layerId = m002;
shapes = (
{
closed = 1;
nodes = (
(153,0,o),
(175,1,o),
(189,6,cs),
(215,14,o),
(228,29,o),
(236,40,cs),
(243,50,o),
(248,62,o),
(248,78,cs),
(248,87,o),
(248,98,o),
(246,109,cs),
(241,131,o),
(220,158,o),
(191,180,cs),
(178,190,o),
(165,201,o),
(152,209,cs),
(121,230,o),
(99,248,o),
(99,263,cs),
(99,284,o),
(113,304,o),
(129,316,cs),
(143,326,o),
(161,337,o),
(187,337,cs),
(266,337,ls),
(269,337,o),
(273,339,o),
(273,343,cs),
(273,347,o),
(269,349,o),
(266,350,c),
(187,350,ls),
(157,350,o),
(135,336,o),
(121,326,cs),
(104,314,o),
(86,289,o),
(85,263,cs),
(85,241,o),
(114,219,o),
(145,199,cs),
(158,191,o),
(169,180,o),
(183,170,cs),
(210,150,o),
(228,126,o),
(232,107,cs),
(234,97,o),
(235,87,o),
(235,78,cs),
(235,64,o),
(232,56,o),
(226,48,cs),
(218,37,o),
(209,26,o),
(185,18,cs),
(172,14,o),
(153,13,o),
(135,13,cs),
(102,13,o),
(56,21,o),
(42,21,c),
(41,22,l),
(37,21,o),
(35,19,o),
(35,15,cs),
(35,12,o),
(37,9,o),
(40,9,c),
(54,6,o),
(101,0,o),
(135,0,cs)
);
}
);
width = 310;
},
{
layerId = m003;
shapes = (
{
closed = 1;
nodes = (
(173,0,o),
(199,2,o),
(211,5,cs),
(225,8,o),
(256,19,o),
(269,36,cs),
(279,50,o),
(285,64,o),
(287,80,cs),
(288,90,o),
(289,109,o),
(284,125,cs),
(276,152,o),
(254,170,o),
(224,189,cs),
(210,198,o),
(192,208,o),
(179,216,cs),
(147,235,o),
(140,245,o),
(140,255,cs),
(140,265,o),
(152,279,o),
(166,288,cs),
(176,295,o),
(195,300,o),
(207,300,cs),
(284,300,ls),
(297,300,o),
(312,308,o),
(312,324,cs),
(312,338,o),
(298,350,o),
(284,350,c),
(207,350,ls),
(185,350,o),
(156,340,o),
(134,326,cs),
(108,309,o),
(89,286,o),
(88,257,cs),
(87,230,o),
(99,207,o),
(144,179,cs),
(157,171,o),
(182,157,o),
(196,149,cs),
(222,134,o),
(231,123,o),
(236,111,cs),
(239,104,o),
(239,94,o),
(237,84,cs),
(235,76,o),
(231,70,o),
(226,65,cs),
(220,60,o),
(209,56,o),
(200,54,cs),
(187,51,o),
(173,50,o),
(155,50,cs),
(122,50,o),
(75,58,o),
(61,58,c),
(59,58,l),
(48,59,o),
(36,49,o),
(36,36,cs),
(36,22,o),
(43,13,o),
(54,10,c),
(68,7,o),
(121,0,o),
(155,0,cs)
);
}
);
width = 349;
}
);
metricRight = n;
unicode = 115;
},
{
glyphname = t;
lastChange = "2022-01-30 03:32:07 +0000";
layers = (
{
layerId = m002;
shapes = (
{
closed = 1;
nodes = (
(123,0,o),
(125,2,o),
(126,5,cs),
(188,338,l),
(294,338,ls),
(298,338,o),
(300,340,o),
(300,344,cs),
(300,348,o),
(298,350,o),
(294,350,cs),
(190,350,l),
(241,643,l),
(241,644,ls),
(241,648,o),
(239,650,o),
(235,650,cs),
(232,650,o),
(230,648,o),
(229,645,c),
(177,350,l),
(71,350,ls),
(67,350,o),
(65,348,o),
(65,344,cs),
(65,340,o),
(67,338,o),
(71,338,cs),
(174,338,l),
(114,7,l),
(114,6,ls),
(114,2,o),
(116,0,o),
(120,0,cs)
);
}
);
width = 337;
},
{
layerId = m003;
shapes = (
{
closed = 1;
nodes = (
(122,0,o),
(133,8,o),
(135,21,cs),
(185,300,l),
(273,300,ls),
(282,300,o),
(296,309,o),
(296,325,cs),
(296,342,o),
(281,350,o),
(272,350,cs),
(195,350,l),
(244,621,l),
(244,626,ls),
(244,642,o),
(236,650,o),
(220,650,cs),
(207,650,o),
(198,642,o),
(195,629,c),
(144,350,l),
(59,350,ls),
(49,350,o),
(36,340,o),
(36,325,cs),
(36,307,o),
(52,300,o),
(59,300,cs),
(135,300,l),
(86,30,l),
(85,25,ls),
(82,9,o),
(95,0,o),
(111,0,cs)
);
}
);
width = 333;
}
);
metricLeft = o;
metricRight = n;
unicode = 116;
},
{
glyphname = u;
lastChange = "2022-01-30 03:12:51 +0000";
layers = (
{
layerId = m002;
shapes = (
{
closed = 1;
nodes = (
(146,0,o),
(165,21,o),
(179,33,cs),
(205,56,o),
(250,105,o),
(275,136,cs),
(294,160,o),
(315,192,o),
(344,234,c),
(303,6,l),
(303,2,o),
(305,0,o),
(309,0,cs),
(312,0,o),
(314,2,o),
(315,5,c),
(376,343,l),
(376,344,ls),
(376,348,o),
(374,350,o),
(370,350,cs),
(367,350,o),
(365,348,o),
(364,345,cs),
(349,265,l),
(312,210,o),
(287,172,o),
(265,144,cs),
(240,113,o),
(197,66,o),
(171,43,cs),
(157,31,o),
(140,13,o),
(121,13,cs),
(109,13,o),
(100,18,o),
(93,25,cs),
(86,33,o),
(79,43,o),
(83,66,cs),
(91,111,o),
(117,246,o),
(134,343,c),
(134,344,o),
(134,344,o),
(134,344,c),
(134,348,o),
(130,350,o),
(127,350,cs),
(124,350,o),
(122,349,o),
(121,345,c),
(103,249,o),
(79,113,o),
(71,68,cs),
(67,45,o),
(75,26,o),
(83,17,cs),
(91,7,o),
(106,0,o),
(121,0,cs)
);
}
);
width = 411;
},
{
layerId = m003;
shapes = (
{
closed = 1;
nodes = (
(133,0,o),
(157,22,o),
(170,34,cs),
(195,55,o),
(237,103,o),
(262,132,cs),
(268,139,o),
(271,143,o),
(280,156,c),
(257,25,l),
(256,17,o),
(264,0,o),
(280,0,cs),
(300,0,o),
(305,12,o),
(306,19,c),
(361,326,l),
(361,329,ls),
(361,335,o),
(356,350,o),
(337,350,cs),
(322,350,o),
(313,340,o),
(312,333,cs),
(302,275,l),
(267,224,o),
(243,188,o),
(221,161,cs),
(197,132,o),
(162,93,o),
(139,72,cs),
(123,58,o),
(113,50,o),
(103,50,cs),
(97,50,o),
(94,52,o),
(91,56,cs),
(87,61,o),
(86,67,o),
(88,78,cs),
(95,121,o),
(116,234,o),
(132,326,c),
(132,326,o),
(132,328,o),
(132,328,c),
(133,335,o),
(127,350,o),
(108,350,cs),
(93,350,o),
(84,342,o),
(83,333,c),
(67,244,o),
(45,122,o),
(37,80,cs),
(34,58,o),
(44,32,o),
(56,21,cs),
(66,11,o),
(79,0,o),
(105,0,cs)
);
}
);
width = 396;
}
);
metricRight = o;
unicode = 117;
},
{
glyphname = v;
lastChange = "2022-01-30 03:33:49 +0000";
layers = (
{
layerId = m002;
shapes = (
{
closed = 1;
nodes = (
(135,0,o),
(159,32,o),
(190,71,cs),
(206,91,o),
(249,165,o),
(273,208,cs),
(298,251,o),
(322,295,o),
(339,329,c),
(349,316,o),
(362,307,o),
(374,303,cs),
(377,302,l),
(381,302,o),
(383,306,o),
(383,309,cs),
(383,311,o),
(382,313,o),
(381,314,c),
(367,321,o),
(355,328,o),
(347,342,cs),
(346,344,o),
(342,350,o),
(340,350,cs),
(335,350,o),
(336,351,o),
(331,343,c),
(315,308,o),
(289,261,o),
(261,214,cs),
(237,173,o),
(196,99,o),
(180,79,cs),
(150,42,o),
(129,12,o),
(107,12,cs),
(88,12,o),
(66,41,o),
(80,121,cs),
(120,342,l),
(120,343,ls),
(120,346,o),
(117,350,o),
(114,350,cs),
(111,350,o),
(108,347,o),
(107,344,c),
(107,344,o),
(65,122,o),
(65,63,cs),
(65,33,o),
(81,0,o),
(109,0,cs)
);
}
);
width = 383;
},
{
layerId = m003;
shapes = (
{
closed = 1;
nodes = (
(125,0,o),
(145,21,o),
(175,60,cs),
(201,93,o),
(238,158,o),
(263,201,cs),
(288,244,o),
(300,266,o),
(308,282,c),
(320,275,o),
(331,267,o),
(342,271,cs),
(347,273,l),
(357,279,o),
(366,289,o),
(358,307,cs),
(357,309,o),
(352,315,o),
(346,318,c),
(332,325,o),
(329,329,o),
(320,342,cs),
(315,349,o),
(308,350,o),
(301,350,cs),
(291,350,o),
(283,343,o),
(278,334,c),
(262,299,o),
(244,268,o),
(217,221,cs),
(193,180,o),
(153,111,o),
(137,91,cs),
(107,54,o),
(97,50,o),
(94,50,cs),
(92,50,o),
(78,62,o),
(89,122,cs),
(125,320,l),
(125,323,ls),
(125,335,o),
(113,350,o),
(102,350,cs),
(90,350,o),
(78,338,o),
(75,327,c),
(75,327,o),
(34,108,o),
(36,63,cs),
(38,28,o),
(48,0,o),
(90,0,cs)
);
}
);
width = 396;
}
);
metricLeft = o;
unicode = 118;
},
{
glyphname = w;
lastChange = "2022-01-30 03:19:33 +0000";
layers = (
{
layerId = m002;
shapes = (
{
closed = 1;
nodes = (
(126,0,o),
(162,28,o),
(194,69,cs),
(210,89,o),
(239,136,o),
(264,183,cs),
(275,203,o),
(294,253,o),
(307,284,c),
(303,258,o),
(291,211,o),
(287,193,cs),
(278,151,o),
(274,82,o),
(276,56,cs),
(279,18,o),
(304,0,o),
(326,0,cs),
(347,0,o),
(372,24,o),
(402,63,cs),
(419,85,o),
(453,148,o),
(472,190,cs),
(534,328,l),
(542,319,o),
(558,307,o),
(569,304,cs),
(570,304,o),
(571,303,o),
(573,303,cs),
(577,303,o),
(579,305,o),
(579,309,cs),
(579,311,o),
(579,313,o),
(577,314,cs),
(565,318,o),
(548,331,o),
(541,341,cs),
(540,343,o),
(539,346,o),
(537,348,cs),
(535,350,o),
(533,350,o),
(532,350,cs),
(530,350,o),
(527,349,o),
(526,346,cs),
(460,196,ls),
(441,153,o),
(408,92,o),
(392,71,cs),
(364,35,o),
(343,14,o),
(326,13,cs),
(312,12,o),
(293,27,o),
(290,56,cs),
(287,82,o),
(292,149,o),
(299,191,cs),
(303,214,o),
(318,273,o),
(324,302,cs),
(327,317,o),
(333,342,o),
(333,344,cs),
(333,348,o),
(329,350,o),
(326,350,cs),
(322,350,o),
(319,346,o),
(317,342,cs),
(298,298,o),
(269,221,o),
(252,189,cs),
(229,144,o),
(200,97,o),
(184,77,cs),
(153,38,o),
(122,13,o),
(103,13,cs),
(91,13,o),
(80,26,o),
(79,46,cs),
(75,84,o),
(87,158,o),
(93,190,cs),
(121,344,l),
(121,348,o),
(121,350,o),
(118,350,cs),
(115,350,o),
(112,348,o),
(111,345,c),
(81,192,ls),
(75,160,o),
(63,84,o),
(65,44,cs),
(68,17,o),
(87,0,o),
(103,0,cs)
);
}
);
width = 569;
},
{
layerId = m003;
shapes = (
{
closed = 1;
nodes = (
(116,0,o),
(153,27,o),
(178,58,cs),
(194,78,o),
(207,98,o),
(215,112,cs),
(218,117,o),
(224,127,o),
(227,133,c),
(227,126,o),
(226,116,o),
(226,111,cs),
(226,103,o),
(223,70,o),
(227,54,cs),
(237,14,o),
(263,0,o),
(294,0,cs),
(315,0,o),
(341,23,o),
(372,61,cs),
(390,83,o),
(423,148,o),
(442,190,cs),
(484,282,l),
(490,278,o),
(495,276,o),
(502,273,cs),
(505,272,o),
(509,270,o),
(515,271,cs),
(523,272,o),
(532,279,o),
(535,290,cs),
(538,301,o),
(531,314,o),
(524,317,cs),
(510,324,o),
(502,328,o),
(495,341,cs),
(494,343,o),
(492,345,o),
(490,346,cs),
(487,348,o),
(483,350,o),
(474,350,cs),
(467,350,o),
(458,348,o),
(453,337,cs),
(394,204,ls),
(377,165,o),
(345,108,o),
(329,87,cs),
(307,59,o),
(292,50,o),
(287,50,cs),
(282,50,o),
(277,56,o),
(276,64,cs),
(273,91,o),
(278,149,o),
(285,191,cs),
(289,214,o),
(301,258,o),
(307,287,cs),
(310,302,o),
(315,326,o),
(315,328,cs),
(316,336,o),
(305,350,o),
(294,350,cs),
(277,350,o),
(268,343,o),
(265,336,cs),
(248,296,o),
(221,226,o),
(205,194,cs),
(187,159,o),
(155,109,o),
(139,89,cs),
(114,58,o),
(95,50,o),
(92,50,cs),
(90,50,o),
(86,51,o),
(86,59,cs),
(84,93,o),
(93,153,o),
(100,190,cs),
(125,326,l),
(126,331,o),
(122,350,o),
(102,350,cs),
(87,350,o),
(77,339,o),
(76,333,c),
(50,194,ls),
(46,171,o),
(32,91,o),
(37,48,cs),
(39,27,o),
(59,0,o),
(91,0,cs)
);
}
);
width = 571;
}
);
metricLeft = o;
unicode = 119;
},
{
glyphname = x;
lastChange = "2022-01-30 03:19:39 +0000";
layers = (
{
layerId = m002;
shapes = (
{
closed = 1;
nodes = (
(74,0,o),
(75,0,o),
(77,2,cs),
(210,146,l),
(294,4,ls),
(295,2,o),
(298,0,o),
(300,0,cs),
(303,0,o),
(307,4,o),
(307,7,cs),
(307,8,o),
(306,9,o),
(305,10,c),
(219,156,l),
(389,339,ls),
(390,340,o),
(391,341,o),
(391,343,cs),
(391,347,o),
(388,350,o),
(384,350,cs),
(382,350,o),
(381,349,o),
(379,347,cs),
(212,168,l),
(107,346,l),
(105,348,o),
(103,350,o),
(101,350,cs),
(97,350,o),
(95,347,o),
(95,343,cs),
(95,340,l),
(203,158,l),
(67,12,ls),
(65,10,o),
(65,9,o),
(65,7,cs),
(65,4,o),
(69,0,o),
(72,0,cs)
);
}
);
width = 426;
},
{
layerId = m003;
shapes = (
{
closed = 1;
nodes = (
(70,0,o),
(74,1,o),
(81,8,cs),
(179,114,l),
(241,10,ls),
(244,6,o),
(250,0,o),
(260,0,cs),
(270,0,o),
(282,10,o),
(284,17,cs),
(287,27,o),
(286,32,o),
(282,39,c),
(214,155,l),
(358,308,ls),
(362,313,o),
(364,318,o),
(364,326,cs),
(364,339,o),
(351,350,o),
(339,350,cs),
(332,350,o),
(327,349,o),
(322,344,cs),
(187,200,l),
(106,337,l),
(99,347,o),
(91,350,o),
(84,350,cs),
(65,350,o),
(55,331,o),
(60,317,cs),
(61,314,l),
(151,160,l),
(42,44,ls),
(38,40,o),
(36,33,o),
(36,27,cs),
(36,10,o),
(52,0,o),
(60,0,cs)
);
}
);
width = 399;
}
);
metricLeft = o;
metricRight = o;
unicode = 120;
},
{
glyphname = y;
lastChange = "2022-01-30 03:32:23 +0000";
layers = (
{
layerId = m002;
shapes = (
{
closed = 1;
nodes = (
(251,-329,o),
(274,-269,o),
(360,265,cs),
(363,284,o),
(371,321,o),
(374,342,cs),
(375,346,o),
(372,350,o),
(368,350,cs),
(365,350,o),
(362,347,o),
(362,344,c),
(358,324,o),
(352,289,o),
(348,270,c),
(322,226,o),
(284,164,o),
(264,137,cs),
(240,105,o),
(197,61,o),
(172,38,cs),
(157,25,o),
(137,13,o),
(125,13,cs),
(117,13,o),
(108,16,o),
(103,21,cs),
(95,30,o),
(88,43,o),
(88,64,cs),
(88,95,o),
(113,228,o),
(134,342,cs),
(135,346,o),
(132,350,o),
(128,350,cs),
(125,350,o),
(122,347,o),
(122,344,c),
(100,231,o),
(75,96,o),
(75,64,cs),
(75,40,o),
(84,23,o),
(93,13,cs),
(100,4,o),
(114,0,o),
(125,0,cs),
(141,0,o),
(165,15,o),
(180,28,cs),
(207,51,o),
(250,97,o),
(274,129,cs),
(291,151,o),
(319,195,o),
(342,234,c),
(260,-270,o),
(235,-315,o),
(61,-277,c),
(57,-278,o),
(55,-280,o),
(55,-284,cs),
(55,-288,o),
(57,-290,o),
(61,-291,cs)
);
}
);
width = 409;
},
{
layerId = m003;
shapes = (
{
closed = 1;
nodes = (
(259,-300,o),
(276,-284,o),
(372,265,cs),
(375,284,o),
(379,300,o),
(381,321,cs),
(382,330,o),
(377,350,o),
(356,350,cs),
(344,350,o),
(334,337,o),
(332,327,c),
(328,307,o),
(324,284,o),
(320,265,c),
(298,206,o),
(271,175,o),
(246,149,cs),
(218,119,o),
(193,95,o),
(166,72,cs),
(152,60,o),
(141,54,o),
(136,51,cs),
(132,49,o),
(125,48,o),
(121,51,cs),
(117,54,o),
(114,60,o),
(113,72,cs),
(111,110,o),
(150,302,o),
(154,324,cs),
(155,331,o),
(149,350,o),
(128,350,cs),
(116,350,o),
(107,340,o),
(105,332,c),
(101,312,o),
(61,104,o),
(64,64,cs),
(66,41,o),
(73,28,o),
(85,16,cs),
(93,8,o),
(106,0,o),
(122,0,cs),
(145,0,o),
(164,7,o),
(183,22,cs),
(211,44,o),
(261,92,o),
(285,117,cs),
(290,122,o),
(293,126,o),
(297,132,c),
(228,-211,o),
(235,-253,o),
(63,-250,c),
(48,-250,o),
(36,-259,o),
(36,-272,cs),
(36,-291,o),
(50,-300,o),
(59,-300,cs)
);
}
);
width = 416;
}
);
metricRight = o;
unicode = 121;
},
{
glyphname = z;
lastChange = "2022-01-30 03:32:31 +0000";
layers = (
{
layerId = m002;
shapes = (
{
closed = 1;
nodes = (
(341,0,ls),
(344,0,o),
(348,4,o),
(348,7,cs),
(348,10,o),
(344,14,o),
(341,14,cs),
(61,14,l),
(365,342,ls),
(369,347,o),
(367,350,o),
(361,350,cs),
(92,350,ls),
(89,350,o),
(85,348,o),
(85,344,cs),
(85,340,o),
(89,338,o),
(92,338,cs),
(342,338,l),
(38,8,ls),
(34,4,o),
(36,0,o),
(42,0,cs)
);
}
);
width = 404;
},
{
layerId = m003;
shapes = (
{
closed = 1;
nodes = (
(335,0,l),
(348,0,o),
(360,12,o),
(360,25,cs),
(360,39,o),
(348,50,o),
(335,50,cs),
(126,50,l),
(372,311,l),
(390,332,o),
(382,350,o),
(353,350,cs),
(111,350,ls),
(98,350,o),
(86,338,o),
(86,324,cs),
(86,311,o),
(98,300,o),
(111,300,cs),
(293,300,l),
(48,38,ls),
(29,17,o),
(34,0,o),
(58,0,c)
);
}
);
width = 419;
}
);
metricLeft = n;
metricRight = n;
unicode = 122;
},
{
glyphname = zero;
lastChange = "2022-01-28 07:33:31 +0000";
layers = (
{
layerId = m002;
shapes = (
{
closed = 1;
nodes = (
(136,0,o),
(163,10,o),
(181,26,cs),
(298,130,o),
(385,307,o),
(385,464,cs),
(385,500,o),
(378,550,o),
(367,578,cs),
(356,608,o),
(340,644,o),
(312,659,cs),
(295,668,o),
(276,673,o),
(259,673,cs),
(240,673,o),
(220,667,o),
(202,659,cs),
(148,631,o),
(125,607,o),
(79,520,cs),
(58,479,o),
(40,424,o),
(29,381,cs),
(19,343,o),
(0,268,o),
(0,194,cs),
(0,112,o),
(16,57,o),
(49,25,cs),
(65,8,o),
(89,0,o),
(112,0,cs)
);
},
{
closed = 1;
nodes = (
(91,13,o),
(72,20,o),
(59,33,cs),
(28,63,o),
(14,114,o),
(14,194,cs),
(14,266,o),
(32,340,o),
(41,377,cs),
(52,420,o),
(70,475,o),
(92,514,cs),
(135,599,o),
(157,621,o),
(208,647,cs),
(224,655,o),
(242,659,o),
(259,659,cs),
(275,659,o),
(290,656,o),
(306,647,cs),
(330,634,o),
(344,603,o),
(355,574,cs),
(366,544,o),
(371,505,o),
(371,464,cs),
(371,310,o),
(287,138,o),
(173,36,cs),
(157,21,o),
(134,13,o),
(112,13,cs)
);
}
);
width = 385;
},
{
layerId = m003;
shapes = (
{
closed = 1;
nodes = (
(152,1,o),
(183,12,o),
(203,30,cs),
(320,135,o),
(401,309,o),
(401,456,cs),
(401,494,o),
(393,544,o),
(383,571,cs),
(364,618,o),
(345,644,o),
(322,657,cs),
(303,666,o),
(281,672,o),
(263,672,cs),
(245,672,o),
(223,667,o),
(201,657,c),
(144,627,o),
(120,599,o),
(77,518,cs),
(59,484,o),
(41,434,o),
(29,383,cs),
(11,320,o),
(0,252,o),
(0,202,cs),
(0,119,o),
(17,64,o),
(53,31,cs),
(70,12,o),
(97,1,o),
(125,1,cs)
);
},
{
closed = 1;
nodes = (
(109,51,o),
(98,55,o),
(88,65,cs),
(63,89,o),
(52,130,o),
(52,202,cs),
(52,246,o),
(60,299,o),
(76,371,cs),
(88,418,o),
(106,465,o),
(123,494,c),
(160,568,o),
(176,587,o),
(223,612,cs),
(236,618,o),
(249,621,o),
(263,621,cs),
(277,621,o),
(286,619,o),
(298,612,cs),
(312,605,o),
(322,589,o),
(335,553,cs),
(344,529,o),
(349,497,o),
(349,456,cs),
(349,320,o),
(277,165,o),
(169,68,cs),
(157,57,o),
(142,51,o),
(125,51,cs)
);
}
);
width = 401;
}
);
unicode = 48;
},
{
glyphname = one;
lastChange = "2022-01-28 07:33:31 +0000";
layers = (
{
layerId = m002;
shapes = (
{
closed = 1;
nodes = (
(10,0,o),
(12,2,o),
(13,5,cs),
(132,666,ls),
(133,671,o),
(128,672,o),
(125,672,cs),
(122,672,o),
(120,670,o),
(119,667,c),
(0,6,ls),
(0,4,o),
(0,0,o),
(7,0,cs)
);
}
);
width = 132;
},
{
layerId = m003;
shapes = (
{
closed = 1;
nodes = (
(36,0,o),
(47,8,o),
(49,20,cs),
(162,644,ls),
(165,661,o),
(152,673,o),
(137,673,cs),
(125,673,o),
(115,665,o),
(112,652,cs),
(0,30,ls),
(-3,13,o),
(10,0,o),
(24,0,cs)
);
}
);
width = 162;
}
);
unicode = 49;
},
{
glyphname = two;
lastChange = "2022-01-28 07:33:31 +0000";
layers = (
{
layerId = m002;
shapes = (
{
closed = 1;
nodes = (
(6,0,ls),
(7,0,o),
(110,9,o),
(150,9,cs),
(189,9,o),
(224,7,o),
(259,4,cs),
(298,2,o),
(338,0,o),
(386,0,cs),
(390,0,o),
(392,2,o),
(392,6,cs),
(392,10,o),
(390,12,o),
(386,12,cs),
(338,12,o),
(298,15,o),
(260,17,cs),
(224,20,o),
(190,22,o),
(150,22,cs),
(114,22,o),
(74,20,o),
(26,15,c),
(98,78,o),
(155,147,o),
(193,192,cs),
(202,203,o),
(210,213,o),
(217,221,cs),
(295,311,o),
(324,356,o),
(374,439,cs),
(388,463,o),
(401,494,o),
(410,518,cs),
(416,534,o),
(422,560,o),
(420,596,cs),
(417,624,o),
(396,652,o),
(376,664,cs),
(366,670,o),
(346,672,o),
(329,672,cs),
(318,672,o),
(307,672,o),
(299,670,cs),
(280,667,o),
(250,658,o),
(235,652,cs),
(206,641,o),
(176,624,o),
(152,606,cs),
(150,605,o),
(150,603,o),
(150,601,cs),
(150,598,o),
(152,594,o),
(156,594,cs),
(157,594,o),
(159,595,o),
(160,596,cs),
(184,612,o),
(212,629,o),
(239,640,cs),
(254,646,o),
(284,655,o),
(301,658,cs),
(308,659,o),
(318,660,o),
(329,660,cs),
(345,660,o),
(361,658,o),
(370,652,cs),
(386,642,o),
(405,618,o),
(406,594,cs),
(410,562,o),
(404,538,o),
(398,522,cs),
(389,500,o),
(376,469,o),
(362,445,cs),
(314,362,o),
(285,319,o),
(207,229,cs),
(200,221,o),
(192,212,o),
(183,201,cs),
(142,152,o),
(81,78,o),
(2,11,cs),
(0,10,o),
(0,8,o),
(0,6,cs),
(0,2,o),
(2,0,o),
(6,0,cs)
);
}
);
width = 420;
},
{
layerId = m003;
shapes = (
{
closed = 1;
nodes = (
(32,1,ls),
(42,2,o),
(124,8,o),
(162,8,cs),
(198,8,o),
(228,6,o),
(261,3,cs),
(298,1,o),
(340,0,o),
(385,0,cs),
(395,0,o),
(407,9,o),
(407,25,cs),
(407,40,o),
(395,49,o),
(385,49,cs),
(340,49,o),
(301,52,o),
(265,54,cs),
(231,56,o),
(198,58,o),
(161,58,cs),
(138,58,o),
(107,56,o),
(96,56,c),
(136,93,o),
(179,145,o),
(215,188,cs),
(224,199,o),
(231,208,o),
(238,216,cs),
(312,301,o),
(341,347,o),
(389,425,cs),
(402,448,o),
(416,478,o),
(423,500,cs),
(430,521,o),
(437,547,o),
(434,584,cs),
(432,610,o),
(411,645,o),
(383,662,cs),
(370,670,o),
(348,673,o),
(329,673,cs),
(316,673,o),
(300,672,o),
(292,670,cs),
(274,666,o),
(249,659,o),
(234,653,cs),
(206,642,o),
(176,624,o),
(150,606,cs),
(145,603,o),
(142,594,o),
(142,590,cs),
(141,574,o),
(150,565,o),
(159,562,cs),
(163,561,o),
(171,560,o),
(177,564,cs),
(201,580,o),
(228,596,o),
(253,606,cs),
(268,612,o),
(291,618,o),
(307,621,cs),
(313,622,o),
(324,623,o),
(332,623,cs),
(340,623,o),
(352,622,o),
(361,617,cs),
(376,607,o),
(383,587,o),
(384,574,cs),
(386,544,o),
(381,529,o),
(375,514,cs),
(367,493,o),
(354,466,o),
(341,444,cs),
(296,368,o),
(275,334,o),
(201,249,cs),
(195,242,o),
(186,232,o),
(178,222,cs),
(139,176,o),
(84,106,o),
(8,43,cs),
(3,39,o),
(0,33,o),
(0,21,cs),
(0,7,o),
(17,-1,o),
(23,0,cs)
);
}
);
width = 435;
}
);
unicode = 50;
},
{
glyphname = three;
lastChange = "2022-01-28 07:33:31 +0000";
layers = (
{
layerId = m002;
shapes = (
{
closed = 1;
nodes = (
(101,0,o),
(210,15,o),
(302,158,cs),
(327,196,o),
(339,235,o),
(339,278,cs),
(339,295,o),
(338,312,o),
(334,330,cs),
(327,370,o),
(270,408,o),
(224,408,cs),
(192,408,o),
(178,405,o),
(158,400,cs),
(147,397,l),
(176,416,o),
(206,438,o),
(231,459,cs),
(259,483,o),
(303,526,o),
(318,557,cs),
(326,574,o),
(336,595,o),
(336,614,cs),
(336,623,o),
(334,633,o),
(328,642,cs),
(318,659,o),
(296,674,o),
(248,674,cs),
(222,674,o),
(176,665,o),
(153,658,cs),
(124,649,o),
(96,634,o),
(74,615,c),
(72,614,o),
(72,612,o),
(72,610,cs),
(72,606,o),
(74,604,o),
(78,604,cs),
(80,604,o),
(81,604,o),
(82,605,cs),
(104,624,o),
(130,637,o),
(157,646,cs),
(178,653,o),
(222,660,o),
(248,660,cs),
(292,660,o),
(308,650,o),
(318,634,cs),
(322,628,o),
(323,622,o),
(323,614,cs),
(323,598,o),
(314,580,o),
(306,563,cs),
(293,534,o),
(251,493,o),
(223,469,cs),
(180,433,o),
(123,396,o),
(81,371,cs),
(78,369,o),
(77,366,o),
(78,362,c),
(81,358,o),
(84,357,o),
(87,358,cs),
(106,366,ls),
(127,375,o),
(148,384,o),
(162,388,cs),
(180,393,o),
(194,394,o),
(224,394,cs),
(265,394,o),
(315,362,o),
(322,328,cs),
(325,310,o),
(326,294,o),
(326,278,cs),
(326,237,o),
(315,202,o),
(292,166,cs),
(203,28,o),
(100,14,o),
(80,14,cs),
(62,14,o),
(29,22,o),
(10,40,c),
(10,42,o),
(8,42,o),
(6,42,cs),
(2,42,o),
(0,40,o),
(0,36,cs),
(0,34,o),
(0,32,o),
(2,32,c),
(22,10,o),
(61,0,o),
(80,0,cs)
);
}
);
width = 339;
},
{
layerId = m003;
shapes = (
{
closed = 1;
nodes = (
(129,0,o),
(238,27,o),
(321,162,cs),
(343,197,o),
(357,240,o),
(357,282,cs),
(357,298,o),
(356,317,o),
(351,337,cs),
(343,372,o),
(312,401,o),
(271,416,cs),
(262,419,o),
(241,422,o),
(233,422,cs),
(230,422,l),
(235,426,o),
(255,443,o),
(262,449,cs),
(289,472,o),
(326,514,o),
(336,538,cs),
(343,554,o),
(354,576,o),
(354,595,cs),
(354,612,o),
(350,626,o),
(339,640,cs),
(326,656,o),
(303,673,o),
(252,673,cs),
(218,673,o),
(176,663,o),
(154,656,cs),
(126,647,o),
(99,632,o),
(78,614,c),
(73,610,o),
(68,604,o),
(68,594,cs),
(68,574,o),
(86,569,o),
(93,569,cs),
(94,569,o),
(101,569,o),
(105,572,cs),
(131,593,o),
(146,600,o),
(172,609,cs),
(189,615,o),
(232,623,o),
(248,623,cs),
(273,623,o),
(287,620,o),
(295,614,cs),
(302,609,o),
(304,603,o),
(304,597,cs),
(304,589,o),
(299,573,o),
(290,557,cs),
(275,530,o),
(243,497,o),
(216,475,cs),
(177,443,o),
(120,405,o),
(84,385,cs),
(76,380,o),
(71,365,o),
(75,353,c),
(79,342,o),
(94,334,o),
(104,338,cs),
(134,349,ls),
(149,355,o),
(165,363,o),
(174,366,cs),
(191,372,o),
(218,372,o),
(229,372,cs),
(266,372,o),
(299,347,o),
(303,324,cs),
(306,308,o),
(307,297,o),
(307,282,cs),
(307,243,o),
(296,215,o),
(275,182,cs),
(202,67,o),
(109,50,o),
(95,50,cs),
(79,50,o),
(56,56,o),
(38,73,c),
(31,78,o),
(26,77,o),
(24,77,cs),
(11,77,o),
(-4,65,o),
(1,45,cs),
(2,41,o),
(2,38,o),
(9,32,c),
(20,22,o),
(54,0,o),
(94,0,cs)
);
}
);
width = 357;
}
);
unicode = 51;
},
{
glyphname = four;
lastChange = "2022-01-28 07:33:31 +0000";
layers = (
{
layerId = m002;
shapes = (
{
closed = 1;
nodes = (
(137,0,o),
(139,2,o),
(140,5,cs),
(167,156,l),
(313,156,ls),
(316,156,o),
(320,158,o),
(320,162,cs),
(320,166,o),
(316,168,o),
(313,168,cs),
(169,168,l),
(201,342,l),
(201,342,o),
(201,342,o),
(201,343,cs),
(201,348,o),
(199,350,o),
(194,350,cs),
(191,350,o),
(189,348,o),
(188,344,cs),
(156,168,l),
(14,168,l),
(104,664,l),
(104,664,o),
(104,665,o),
(104,665,cs),
(105,669,o),
(101,672,o),
(98,672,cs),
(95,672,o),
(93,671,o),
(92,667,cs),
(0,163,ls),
(-1,158,o),
(1,156,o),
(5,156,cs),
(154,156,l),
(127,7,l),
(127,6,ls),
(127,2,o),
(129,0,o),
(133,0,cs)
);
}
);
width = 320;
},
{
layerId = m003;
shapes = (
{
closed = 1;
nodes = (
(170,0,o),
(182,8,o),
(183,20,c),
(205,137,l),
(335,137,ls),
(348,137,o),
(361,148,o),
(361,162,cs),
(361,176,o),
(348,187,o),
(335,187,cs),
(214,187,l),
(234,301,ls),
(236,313,o),
(240,335,o),
(228,345,cs),
(224,348,o),
(218,350,o),
(213,350,cs),
(200,350,o),
(190,340,o),
(188,327,cs),
(162,187,l),
(57,187,l),
(139,639,ls),
(140,642,o),
(141,647,o),
(141,647,c),
(144,660,o),
(128,673,o),
(115,673,cs),
(102,673,o),
(92,664,o),
(90,652,cs),
(1,167,ls),
(-2,150,o),
(8,137,o),
(24,137,cs),
(153,137,l),
(135,38,l),
(133,24,l),
(133,10,o),
(144,0,o),
(158,0,cs)
);
}
);
width = 361;
}
);
unicode = 52;
},
{
glyphname = five;
lastChange = "2022-01-28 07:33:31 +0000";
layers = (
{
layerId = m002;
shapes = (
{
closed = 1;
nodes = (
(191,-1,o),
(258,27,o),
(290,61,cs),
(313,85,o),
(338,134,o),
(341,161,cs),
(344,189,o),
(344,207,o),
(341,223,cs),
(334,258,o),
(327,284,o),
(301,313,cs),
(277,339,o),
(235,350,o),
(199,350,cs),
(180,350,o),
(145,347,o),
(129,342,cs),
(116,338,o),
(95,329,o),
(82,322,c),
(143,661,l),
(389,661,ls),
(393,661,o),
(395,663,o),
(395,667,cs),
(395,671,o),
(393,673,o),
(389,673,cs),
(137,673,ls),
(133,673,o),
(132,671,o),
(131,667,cs),
(67,313,ls),
(66,309,o),
(69,308,o),
(72,305,cs),
(73,304,ls),
(76,301,o),
(79,303,o),
(82,305,cs),
(93,314,o),
(117,324,o),
(133,330,cs),
(147,335,o),
(180,339,o),
(199,339,cs),
(233,339,o),
(269,328,o),
(291,305,cs),
(315,279,o),
(320,256,o),
(328,223,cs),
(332,206,o),
(332,190,o),
(329,163,cs),
(326,138,o),
(303,93,o),
(282,71,cs),
(250,37,o),
(187,13,o),
(142,12,cs),
(93,12,o),
(52,24,o),
(11,55,cs),
(9,56,o),
(8,57,o),
(6,57,cs),
(2,57,o),
(0,54,o),
(0,50,cs),
(0,48,o),
(0,47,o),
(1,45,cs),
(46,12,o),
(93,0,o),
(142,0,cs)
);
}
);
width = 395;
},
{
layerId = m003;
shapes = (
{
closed = 1;
nodes = (
(227,0,o),
(296,34,o),
(328,66,cs),
(367,106,o),
(380,137,o),
(382,171,cs),
(384,197,o),
(381,222,o),
(378,237,cs),
(372,270,o),
(351,300,o),
(324,321,cs),
(301,339,o),
(255,350,o),
(222,350,cs),
(204,350,o),
(174,347,o),
(157,343,cs),
(145,340,o),
(134,337,o),
(130,336,c),
(178,623,l),
(409,623,ls),
(422,623,o),
(433,635,o),
(433,647,cs),
(433,665,o),
(419,673,o),
(409,673,cs),
(156,673,ls),
(142,673,o),
(133,664,o),
(131,650,cs),
(71,297,ls),
(68,282,o),
(84,267,o),
(90,265,cs),
(94,264,ls),
(103,262,o),
(109,265,o),
(119,272,cs),
(127,278,o),
(146,289,o),
(166,293,cs),
(179,296,o),
(204,300,o),
(222,300,cs),
(249,300,o),
(277,294,o),
(292,282,cs),
(312,266,o),
(323,249,o),
(327,229,cs),
(330,215,o),
(334,191,o),
(332,175,cs),
(328,143,o),
(314,122,o),
(287,97,cs),
(256,68,o),
(193,50,o),
(168,50,cs),
(129,50,o),
(92,50,o),
(51,81,cs),
(49,83,o),
(35,94,o),
(33,95,cs),
(22,103,o),
(-13,75,o),
(6,53,cs),
(7,52,o),
(16,45,o),
(19,43,cs),
(63,14,o),
(106,0,o),
(168,0,cs)
);
}
);
width = 433;
}
);
unicode = 53;
},
{
glyphname = six;
lastChange = "2022-01-28 07:33:31 +0000";
layers = (
{
layerId = m002;
shapes = (
{
closed = 1;
nodes = (
(169,0,o),
(222,30,o),
(247,65,cs),
(274,102,o),
(288,133,o),
(294,161,cs),
(299,181,o),
(301,212,o),
(301,231,cs),
(301,250,o),
(299,271,o),
(294,284,cs),
(277,332,o),
(234,350,o),
(187,350,cs),
(164,350,o),
(124,338,o),
(93,315,cs),
(64,293,o),
(32,242,o),
(12,190,c),
(14,274,o),
(48,367,o),
(79,427,cs),
(118,502,o),
(147,546,o),
(257,663,cs),
(258,664,o),
(259,665,o),
(259,667,cs),
(259,671,o),
(255,673,o),
(252,673,cs),
(250,673,o),
(249,673,o),
(247,671,cs),
(137,554,o),
(106,508,o),
(67,433,cs),
(35,370,o),
(0,271,o),
(0,184,cs),
(0,165,o),
(0,118,o),
(5,104,c),
(11,72,o),
(22,49,o),
(43,31,cs),
(62,13,o),
(91,0,o),
(133,0,cs)
);
},
{
closed = 1;
nodes = (
(94,12,o),
(70,24,o),
(51,41,cs),
(32,57,o),
(23,76,o),
(17,106,cs),
(15,114,o),
(14,130,o),
(13,147,c),
(29,220,o),
(65,278,o),
(101,305,cs),
(130,326,o),
(166,338,o),
(187,338,cs),
(231,338,o),
(267,322,o),
(282,280,cs),
(286,268,o),
(288,249,o),
(288,231,cs),
(288,212,o),
(286,183,o),
(282,163,cs),
(276,137,o),
(264,110,o),
(237,73,cs),
(213,40,o),
(165,12,o),
(133,12,cs)
);
}
);
width = 301;
},
{
layerId = m003;
shapes = (
{
closed = 1;
nodes = (
(199,0,o),
(259,36,o),
(285,70,cs),
(313,107,o),
(322,130,o),
(329,158,cs),
(335,181,o),
(339,199,o),
(339,219,cs),
(339,253,o),
(336,263,o),
(329,282,cs),
(313,326,o),
(270,350,o),
(206,350,cs),
(183,350,o),
(132,341,o),
(102,318,cs),
(91,310,o),
(74,296,o),
(62,283,c),
(68,309,o),
(83,360,o),
(115,420,cs),
(155,495,o),
(178,515,o),
(288,632,cs),
(291,635,o),
(294,642,o),
(294,647,cs),
(294,667,o),
(277,673,o),
(268,673,cs),
(261,673,o),
(254,670,o),
(251,667,cs),
(140,550,o),
(107,517,o),
(68,442,cs),
(35,379,o),
(0,278,o),
(0,191,cs),
(0,165,o),
(0,127,o),
(6,106,c),
(17,64,o),
(31,48,o),
(54,29,cs),
(76,10,o),
(110,0,o),
(152,0,cs)
);
},
{
closed = 1;
nodes = (
(116,50,o),
(102,56,o),
(84,70,cs),
(64,86,o),
(62,97,o),
(55,120,cs),
(53,128,o),
(51,142,o),
(51,154,c),
(66,225,o),
(108,261,o),
(130,276,cs),
(161,298,o),
(191,299,o),
(207,300,cs),
(223,301,o),
(270,304,o),
(283,261,cs),
(286,251,o),
(288,236,o),
(288,222,cs),
(288,203,o),
(282,175,o),
(279,166,cs),
(273,145,o),
(268,133,o),
(244,100,cs),
(226,75,o),
(183,50,o),
(152,50,cs)
);
}
);
width = 339;
}
);
unicode = 54;
},
{
glyphname = seven;
lastChange = "2022-01-28 07:33:31 +0000";
layers = (
{
layerId = m002;
shapes = (
{
closed = 1;
nodes = (
(30,0,o),
(32,1,o),
(33,4,cs),
(125,267,o),
(169,386,o),
(326,663,cs),
(329,668,o),
(328,672,o),
(322,672,cs),
(6,672,ls),
(2,672,o),
(0,670,o),
(0,666,cs),
(0,662,o),
(2,660,o),
(6,660,cs),
(309,660,l),
(156,388,o),
(112,268,o),
(21,8,c),
(21,8,o),
(20,7,o),
(20,6,cs),
(20,2,o),
(24,0,o),
(27,0,cs)
);
}
);
width = 328;
},
{
layerId = m003;
shapes = (
{
closed = 1;
nodes = (
(55,0,o),
(64,4,o),
(68,16,cs),
(154,264,o),
(195,376,o),
(343,637,c),
(351,656,o),
(341,673,o),
(322,673,cs),
(24,673,ls),
(10,673,o),
(0,663,o),
(0,648,cs),
(0,633,o),
(10,623,o),
(24,623,cs),
(277,623,l),
(145,386,o),
(103,269,o),
(21,34,cs),
(19,31,o),
(18,28,o),
(18,24,cs),
(18,9,o),
(30,0,o),
(44,0,cs)
);
}
);
width = 346;
}
);
unicode = 55;
},
{
glyphname = eight;
lastChange = "2022-01-28 07:33:31 +0000";
layers = (
{
layerId = m002;
shapes = (
{
closed = 1;
nodes = (
(176,0,o),
(259,58,o),
(255,146,cs),
(254,165,l),
(244,234,o),
(199,291,o),
(159,341,cs),
(148,354,l),
(159,364,ls),
(241,439,o),
(352,551,o),
(352,606,cs),
(352,610,o),
(350,619,o),
(349,622,cs),
(340,647,o),
(294,666,o),
(264,671,c),
(257,672,o),
(240,673,o),
(233,673,cs),
(198,673,o),
(167,661,o),
(147,650,cs),
(107,627,o),
(61,564,o),
(61,507,cs),
(61,449,o),
(94,401,o),
(131,355,c),
(111,335,o),
(94,318,o),
(83,306,cs),
(43,260,o),
(11,194,o),
(4,161,cs),
(1,151,o),
(0,140,o),
(0,130,cs),
(0,101,o),
(8,72,o),
(20,54,cs),
(33,34,o),
(71,0,o),
(126,0,cs)
);
},
{
closed = 1;
nodes = (
(76,13,o),
(43,41,o),
(30,62,cs),
(20,78,o),
(13,103,o),
(13,130,cs),
(13,140,o),
(14,149,o),
(16,159,cs),
(23,190,o),
(53,252,o),
(93,298,cs),
(103,309,o),
(119,325,o),
(139,345,c),
(148,333,ls),
(190,279,o),
(233,230,o),
(241,165,c),
(242,158,o),
(242,152,o),
(242,146,cs),
(242,65,o),
(171,12,o),
(126,12,cs)
);
},
{
closed = 1;
nodes = (
(104,409,o),
(74,454,o),
(74,507,cs),
(74,560,o),
(116,618,o),
(153,638,cs),
(172,649,o),
(200,660,o),
(233,660,cs),
(240,660,o),
(255,660,o),
(261,659,c),
(289,656,o),
(330,637,o),
(337,618,cs),
(338,615,o),
(339,609,o),
(339,606,cs),
(339,556,o),
(232,447,o),
(150,373,cs),
(140,364,l)
);
}
);
width = 352;
},
{
layerId = m003;
shapes = (
{
closed = 1;
nodes = (
(202,0,o),
(283,68,o),
(278,159,cs),
(277,176,l),
(268,243,o),
(230,294,o),
(196,337,cs),
(185,351,l),
(200,365,ls),
(276,436,o),
(370,533,o),
(370,588,cs),
(370,594,o),
(369,601,o),
(367,608,cs),
(357,645,o),
(301,667,o),
(272,671,c),
(265,672,o),
(249,673,o),
(242,673,cs),
(200,673,o),
(176,661,o),
(155,651,cs),
(112,631,o),
(65,574,o),
(59,511,cs),
(53,450,o),
(83,402,o),
(117,356,c),
(97,336,o),
(89,327,o),
(78,315,cs),
(38,269,o),
(9,200,o),
(2,167,cs),
(-1,157,o),
(0,135,o),
(1,125,cs),
(3,101,o),
(12,74,o),
(26,55,cs),
(40,36,o),
(80,0,o),
(135,0,cs)
);
},
{
closed = 1;
nodes = (
(110,51,o),
(91,60,o),
(76,74,cs),
(58,91,o),
(54,112,o),
(52,125,cs),
(50,136,o),
(50,148,o),
(52,158,cs),
(62,205,o),
(94,257,o),
(118,285,cs),
(125,293,o),
(138,306,o),
(148,316,c),
(158,303,ls),
(165,293,o),
(220,232,o),
(226,174,c),
(227,169,o),
(228,160,o),
(228,156,cs),
(230,80,o),
(157,47,o),
(134,49,cs)
);
},
{
closed = 1;
nodes = (
(118,437,o),
(107,469,o),
(108,501,cs),
(109,545,o),
(146,592,o),
(180,608,cs),
(201,618,o),
(218,623,o),
(242,623,cs),
(256,623,o),
(267,622,o),
(277,619,c),
(304,611,o),
(316,601,o),
(318,595,cs),
(319,592,o),
(319,590,o),
(319,587,cs),
(318,557,o),
(246,474,o),
(164,400,cs),
(154,391,l)
);
}
);
width = 370;
}
);
unicode = 56;
},
{
glyphname = nine;
lastChange = "2022-01-28 07:33:31 +0000";
layers = (
{
layerId = m002;
shapes = (
{
closed = 1;
nodes = (
(180,0,o),
(183,2,o),
(184,6,c),
(205,234,o),
(219,287,o),
(247,411,cs),
(302,654,l),
(302,656,o),
(300,658,o),
(299,659,cs),
(286,669,o),
(251,673,o),
(222,673,cs),
(202,673,o),
(182,671,o),
(171,668,cs),
(38,630,o),
(16,537,o),
(2,442,cs),
(1,432,o),
(0,421,o),
(0,410,cs),
(0,384,o),
(6,358,o),
(22,345,cs),
(32,337,o),
(47,333,o),
(64,333,cs),
(81,333,o),
(101,337,o),
(120,348,cs),
(154,368,o),
(182,398,o),
(198,422,cs),
(215,447,o),
(240,492,o),
(266,550,c),
(235,414,ls),
(207,290,o),
(192,236,o),
(170,7,cs),
(170,2,o),
(174,0,o),
(177,0,cs)
);
},
{
closed = 1;
nodes = (
(49,346,o),
(38,348,o),
(30,355,cs),
(18,365,o),
(13,386,o),
(13,410,cs),
(13,420,o),
(14,430,o),
(15,440,cs),
(28,535,o),
(48,620,o),
(175,656,cs),
(184,658,o),
(202,660,o),
(222,660,cs),
(248,660,o),
(274,657,o),
(287,651,c),
(270,592,l),
(239,517,o),
(208,459,o),
(186,428,cs),
(172,406,o),
(146,378,o),
(114,360,cs),
(96,350,o),
(79,346,o),
(64,346,cs)
);
}
);
width = 302;
},
{
layerId = m003;
shapes = (
{
closed = 1;
nodes = (
(199,0,o),
(210,13,o),
(211,22,c),
(230,227,o),
(243,286,o),
(272,413,cs),
(322,634,l),
(324,644,o),
(315,654,o),
(308,658,cs),
(292,667,o),
(261,673,o),
(232,673,cs),
(215,673,o),
(194,672,o),
(182,669,cs),
(47,636,o),
(16,540,o),
(2,442,cs),
(1,432,o),
(0,421,o),
(0,410,cs),
(0,379,o),
(7,352,o),
(25,334,cs),
(37,322,o),
(59,316,o),
(74,316,cs),
(97,316,o),
(124,321,o),
(142,332,cs),
(168,348,o),
(179,359,o),
(199,381,cs),
(208,391,o),
(214,398,o),
(219,406,c),
(212,376,ls),
(185,262,o),
(174,171,o),
(160,26,cs),
(159,18,o),
(165,0,o),
(187,0,cs)
);
},
{
closed = 1;
nodes = (
(71,364,o),
(64,365,o),
(58,373,cs),
(50,383,o),
(49,400,o),
(51,417,cs),
(52,425,o),
(53,434,o),
(54,442,cs),
(65,521,o),
(81,581,o),
(172,615,cs),
(180,618,o),
(202,623,o),
(219,623,cs),
(233,623,o),
(257,622,o),
(266,620,c),
(256,586,l),
(219,503,o),
(198,466,o),
(179,435,cs),
(168,418,o),
(149,396,o),
(124,381,cs),
(111,373,o),
(96,367,o),
(88,366,cs)
);
}
);
width = 322;
}
);
unicode = 57;
},
{
glyphname = period;
lastChange = "2022-01-28 07:33:31 +0000";
layers = (
{
layerId = m002;
shapes = (
{
closed = 1;
nodes = (
(21,0,o),
(27,6,o),
(27,12,cs),
(27,22,o),
(20,27,o),
(14,27,cs),
(6,27,o),
(0,21,o),
(0,12,cs),
(0,8,o),
(4,0,o),
(14,0,cs)
);
}
);
width = 27;
},
{
layerId = m003;
shapes = (
{
closed = 1;
nodes = (
(38,0,o),
(50,12,o),
(50,25,cs),
(50,40,o),
(38,50,o),
(25,50,cs),
(10,50,o),
(0,40,o),
(0,25,cs),
(0,12,o),
(10,0,o),
(25,0,cs)
);
}
);
width = 50;
}
);
unicode = 46;
},
{
glyphname = comma;
lastChange = "2022-01-28 07:33:31 +0000";
layers = (
{
layerId = m002;
shapes = (
{
closed = 1;
nodes = (
(10,-20,o),
(11,-19,o),
(11,-19,c),
(20,-11,o),
(27,8,o),
(27,14,cs),
(27,23,o),
(19,28,o),
(13,28,cs),
(6,28,o),
(0,22,o),
(0,14,cs),
(0,8,o),
(4,1,o),
(13,0,c),
(10,-5,o),
(8,-8,o),
(5,-11,cs),
(4,-12,o),
(3,-13,o),
(3,-15,cs),
(3,-17,o),
(6,-20,o),
(8,-20,cs)
);
}
);
width = 27;
},
{
layerId = m003;
shapes = (
{
closed = 1;
nodes = (
(19,-37,o),
(21,-36,o),
(21,-36,c),
(38,-21,o),
(51,14,o),
(51,26,cs),
(51,42,o),
(36,51,o),
(25,51,cs),
(12,51,o),
(0,40,o),
(0,26,cs),
(0,14,o),
(8,1,o),
(25,0,c),
(19,-10,o),
(15,-15,o),
(10,-21,cs),
(8,-23,o),
(6,-24,o),
(6,-28,cs),
(6,-32,o),
(12,-37,o),
(15,-37,cs)
);
}
);
width = 51;
}
);
unicode = 44;
},
{
glyphname = hyphen;
lastChange = "2022-01-28 10:16:43 +0000";
layers = (
{
layerId = m002;
shapes = (
{
closed = 1;
nodes = (
(251,228,ls),
(255,228,o),
(258,230,o),
(258,234,cs),
(258,238,o),
(255,241,o),
(251,241,cs),
(6,241,ls),
(2,241,o),
(0,238,o),
(0,234,cs),
(0,230,o),
(2,228,o),
(6,228,cs)
);
}
